<svg width="17" height="17" viewBox="0 0 17 17" xmlns="http://www.w3.org/2000/svg">
<path d="M8.1839 11.5533V3.85078C8.1839 3.70034 8.23796 3.57106 8.34607 3.46295C8.45418 3.35484 8.58346 3.30078 8.7339 3.30078C8.88435 3.30078 9.01362 3.35484 9.12174 3.46295C9.22985 3.57106 9.2839 3.70034 9.2839 3.85078V11.5533L12.7429 8.09445C12.8522 7.985 12.9843 7.926 13.1391 7.91745C13.2937 7.90889 13.4301 7.96361 13.5481 8.08161C13.6745 8.1995 13.7356 8.33367 13.7314 8.48411C13.7271 8.63456 13.666 8.76873 13.5481 8.88661L9.2609 13.1738C9.18046 13.2542 9.09879 13.3117 9.0159 13.3463C8.93301 13.3809 8.83901 13.3983 8.7339 13.3983C8.62879 13.3983 8.53479 13.3809 8.4519 13.3463C8.36901 13.3117 8.28735 13.2542 8.2069 13.1738L3.95307 8.91995C3.83518 8.80206 3.77407 8.66789 3.76974 8.51745C3.76551 8.367 3.82662 8.23284 3.95307 8.11495C4.07107 7.99695 4.20312 7.93795 4.34924 7.93795C4.49546 7.93795 4.62751 7.99695 4.7454 8.11495L8.1839 11.5533Z" />
</svg>
