<svg width="24" height="24" viewBox="0 0 24 24" xmlns="http://www.w3.org/2000/svg">
<path d="M7.42131 12.8501L12.5596 17.9886C12.7237 18.1526 12.8122 18.3507 12.8251 18.5829C12.8379 18.8149 12.7558 19.0194 12.5788 19.1964C12.402 19.386 12.2007 19.4777 11.9751 19.4714C11.7494 19.4649 11.5481 19.3732 11.3713 19.1964L4.99056 12.8156C4.86989 12.695 4.78364 12.5725 4.73181 12.4481C4.67981 12.3238 4.65381 12.1828 4.65381 12.0251C4.65381 11.8675 4.67981 11.7265 4.73181 11.6021C4.78364 11.4778 4.86989 11.3553 4.99056 11.2346L11.4213 4.80387C11.5981 4.62704 11.7994 4.53537 12.0251 4.52887C12.2507 4.52254 12.452 4.6142 12.6288 4.80387C12.8058 4.98087 12.8943 5.17895 12.8943 5.39812C12.8943 5.61745 12.8058 5.81554 12.6288 5.99237L7.42131 11.2001H18.9751C19.2007 11.2001 19.3946 11.2812 19.5568 11.4434C19.719 11.6055 19.8001 11.7995 19.8001 12.0251C19.8001 12.2508 19.719 12.4447 19.5568 12.6069C19.3946 12.769 19.2007 12.8501 18.9751 12.8501H7.42131Z" />
</svg>
