<svg width="20" height="20" viewBox="0 0 20 20" xmlns="http://www.w3.org/2000/svg">
<path d="M17.4576 14.8538C17.27 14.8538 17.1086 14.7861 16.9735 14.6507C16.8383 14.5153 16.7708 14.3538 16.7708 14.1663V5.83301C16.7708 5.64551 16.8385 5.48405 16.9741 5.34863C17.1096 5.21322 17.2712 5.14551 17.4589 5.14551C17.6465 5.14551 17.8079 5.21322 17.943 5.34863C18.0782 5.48405 18.1458 5.64551 18.1458 5.83301V14.1663C18.1458 14.3538 18.078 14.5153 17.9424 14.6507C17.8069 14.7861 17.6453 14.8538 17.4576 14.8538ZM12.1778 10.6872H2.52075C2.33325 10.6872 2.17179 10.6194 2.03638 10.4838C1.90096 10.3483 1.83325 10.1867 1.83325 9.99905C1.83325 9.81141 1.90096 9.65002 2.03638 9.51488C2.17179 9.37974 2.33325 9.31217 2.52075 9.31217H12.1618L9.47742 6.59092C9.34395 6.45745 9.27909 6.30287 9.28284 6.12717C9.28659 5.95134 9.35679 5.79412 9.49346 5.65551C9.62346 5.52384 9.78068 5.45801 9.96513 5.45801C10.1497 5.45801 10.3087 5.52481 10.4422 5.65842L14.1249 9.34092C14.2253 9.44148 14.2972 9.54426 14.3405 9.64926C14.3837 9.75426 14.4053 9.87176 14.4053 10.0018C14.4053 10.1318 14.3837 10.2486 14.3405 10.3522C14.2972 10.4558 14.2253 10.5579 14.1249 10.6584L10.4262 14.357C10.2953 14.4906 10.1387 14.5574 9.95617 14.5574C9.77381 14.5574 9.61422 14.4906 9.47742 14.357C9.33006 14.2203 9.25902 14.0587 9.26429 13.8722C9.26971 13.6858 9.34075 13.5243 9.47742 13.3876L12.1778 10.6872Z" />
</svg>
