<svg width="16" height="16" viewBox="0 0 16 16" xmlns="http://www.w3.org/2000/svg">
<path d="M10.7254 5.3387L4.58176 11.4527C4.47499 11.5596 4.35126 11.6136 4.2106 11.6149C4.07004 11.6162 3.94076 11.5579 3.82276 11.4399C3.71599 11.3331 3.6626 11.2088 3.6626 11.0669C3.6626 10.925 3.71599 10.8006 3.82276 10.6939L9.93693 4.5502H4.60876C4.45876 4.5502 4.3296 4.49597 4.22126 4.38753C4.11293 4.27908 4.05876 4.14981 4.05876 3.99969C4.05876 3.84958 4.11293 3.72047 4.22126 3.61236C4.3296 3.50425 4.45876 3.4502 4.60876 3.4502H11.0703C11.2784 3.4502 11.4563 3.52403 11.6039 3.67169C11.7516 3.81936 11.8254 3.99725 11.8254 4.20536V10.6669C11.8254 10.8169 11.7712 10.946 11.6628 11.0544C11.5543 11.1627 11.425 11.2169 11.2749 11.2169C11.1248 11.2169 10.9957 11.1627 10.8876 11.0544C10.7795 10.946 10.7254 10.8169 10.7254 10.6669V5.3387Z" />
</svg>
