<svg width="16" height="16" viewBox="0 0 16 16" xmlns="http://www.w3.org/2000/svg">
<path d="M3.76699 8.01629C3.76699 8.20607 3.78238 8.39729 3.81316 8.58996C3.84394 8.78274 3.88455 8.97274 3.93499 9.15996C3.96488 9.31029 3.95866 9.4594 3.91633 9.60729C3.87399 9.75518 3.78449 9.86329 3.64783 9.93162C3.5196 10.0026 3.38155 10.0157 3.23366 9.97079C3.08577 9.9259 2.98577 9.83379 2.93366 9.69446C2.84477 9.42524 2.7781 9.14835 2.73366 8.86379C2.68921 8.57912 2.66699 8.29663 2.66699 8.01629C2.66699 6.6214 3.13433 5.41157 4.06899 4.38679C5.00355 3.36201 6.15844 2.78851 7.53366 2.66629H8.42466L7.61066 1.85213C7.49266 1.73424 7.43433 1.60774 7.43566 1.47262C7.43688 1.33762 7.50077 1.2069 7.62733 1.08046C7.75377 0.953902 7.88516 0.890625 8.02149 0.890625C8.15782 0.890625 8.28921 0.953902 8.41566 1.08046L10.0247 2.68929C10.1768 2.84151 10.2528 3.01718 10.2528 3.21629C10.2528 3.4154 10.1768 3.59107 10.0247 3.74329L8.38233 5.38546C8.27555 5.49235 8.1546 5.5479 8.01949 5.55213C7.88449 5.55646 7.75377 5.5009 7.62733 5.38546C7.50077 5.27013 7.43749 5.14151 7.43749 4.99962C7.43749 4.85774 7.50077 4.72357 7.62733 4.59712L8.44133 3.78296H7.55033C6.51188 3.87185 5.62171 4.31501 4.87983 5.11246C4.13794 5.9099 3.76699 6.87785 3.76699 8.01629ZM12.2337 7.91629C12.2337 7.73763 12.221 7.55474 12.1958 7.36763C12.1706 7.1804 12.1328 6.99874 12.0823 6.82263C12.0524 6.66118 12.067 6.50929 12.126 6.36696C12.185 6.22462 12.2828 6.11929 12.4195 6.05096C12.5477 5.99107 12.6809 5.98357 12.819 6.02846C12.957 6.07335 13.0465 6.16546 13.0875 6.30479C13.1653 6.55179 13.2258 6.81201 13.269 7.08546C13.3121 7.35901 13.3337 7.63596 13.3337 7.91629C13.3337 9.31118 12.8663 10.521 11.9317 11.5458C10.9971 12.5706 9.84221 13.1441 8.46699 13.2663H7.57599L8.38999 14.0805C8.50799 14.1983 8.56633 14.3248 8.56499 14.46C8.56377 14.595 8.49988 14.7257 8.37333 14.8521C8.24688 14.9787 8.11549 15.042 7.97916 15.042C7.84283 15.042 7.71144 14.9787 7.58499 14.8521L5.97599 13.2433C5.82388 13.0911 5.74783 12.9154 5.74783 12.7163C5.74783 12.5172 5.82388 12.3415 5.97599 12.1893L7.61833 10.5471C7.7251 10.4402 7.84605 10.3847 7.98116 10.3805C8.11616 10.3761 8.24688 10.4317 8.37333 10.5471C8.49988 10.6625 8.56316 10.7911 8.56316 10.933C8.56316 11.0748 8.49988 11.209 8.37333 11.3355L7.55933 12.1496H8.45033C9.48877 12.0607 10.3789 11.6176 11.1208 10.8201C11.8627 10.0227 12.2337 9.05474 12.2337 7.91629Z" />
</svg>
