<svg width="20" height="20" viewBox="0 0 20 20" xmlns="http://www.w3.org/2000/svg">
<path d="M2.52013 14.8538C2.33249 14.8538 2.1711 14.7861 2.03596 14.6507C1.90082 14.5153 1.83325 14.3538 1.83325 14.1663V5.83301C1.83325 5.64551 1.90103 5.48405 2.03659 5.34863C2.17214 5.21322 2.33374 5.14551 2.52138 5.14551C2.70902 5.14551 2.8704 5.21322 3.00554 5.34863C3.14068 5.48405 3.20825 5.64551 3.20825 5.83301V14.1663C3.20825 14.3538 3.14047 14.5153 3.00492 14.6507C2.86936 14.7861 2.70777 14.8538 2.52013 14.8538ZM15.5399 10.6872H5.88284C5.69534 10.6872 5.53388 10.6194 5.39846 10.4838C5.26304 10.3483 5.19534 10.1867 5.19534 9.99905C5.19534 9.81141 5.26304 9.65002 5.39846 9.51488C5.53388 9.37974 5.69534 9.31217 5.88284 9.31217H15.5239L12.8397 6.59092C12.7061 6.45745 12.6412 6.30287 12.6449 6.12717C12.6487 5.95134 12.7189 5.79412 12.8558 5.65551C12.9858 5.52384 13.143 5.45801 13.3274 5.45801C13.5119 5.45801 13.6709 5.52481 13.8045 5.65842L17.487 9.34092C17.5876 9.44148 17.6594 9.54426 17.7026 9.64926C17.746 9.75426 17.7676 9.87176 17.7676 10.0018C17.7676 10.1318 17.746 10.2486 17.7026 10.3522C17.6594 10.4558 17.5876 10.5579 17.487 10.6584L13.7885 14.357C13.6575 14.4906 13.5008 14.5574 13.3185 14.5574C13.136 14.5574 12.9764 14.4906 12.8397 14.357C12.6922 14.2203 12.6212 14.0587 12.6266 13.8722C12.6319 13.6858 12.7029 13.5243 12.8397 13.3876L15.5399 10.6872Z" />
</svg>
