<svg width="16" height="16" viewBox="0 0 16 16" xmlns="http://www.w3.org/2000/svg">
<path d="M3.64363 14.4995C3.21752 14.4995 2.8593 14.3543 2.56897 14.0639C2.27852 13.7735 2.1333 13.4153 2.1333 12.9892V4.27654C2.1333 3.85043 2.27852 3.4922 2.56897 3.20187C2.8593 2.91143 3.21752 2.7662 3.64363 2.7662H4.28963V1.92137C4.28963 1.76237 4.34586 1.62665 4.4583 1.5142C4.57075 1.40187 4.70641 1.3457 4.8653 1.3457C5.0243 1.3457 5.16002 1.40187 5.27247 1.5142C5.3848 1.62665 5.44097 1.76237 5.44097 1.92137V2.7662H10.6103V1.8957C10.6103 1.74526 10.6644 1.61598 10.7725 1.50787C10.8806 1.39976 11.0099 1.3457 11.1603 1.3457C11.3106 1.3457 11.4399 1.39976 11.548 1.50787C11.6562 1.61598 11.7103 1.74526 11.7103 1.8957V2.7662H12.3563C12.7824 2.7662 13.1406 2.91143 13.431 3.20187C13.7214 3.4922 13.8666 3.85043 13.8666 4.27654V12.9892C13.8666 13.4153 13.7214 13.7735 13.431 14.0639C13.1406 14.3543 12.7824 14.4995 12.3563 14.4995H3.64363ZM3.64363 13.3995H12.3563C12.459 13.3995 12.553 13.3568 12.6385 13.2714C12.7239 13.1859 12.7666 13.0919 12.7666 12.9892V6.7432H3.2333V12.9892C3.2333 13.0919 3.27602 13.1859 3.36147 13.2714C3.44691 13.3568 3.54097 13.3995 3.64363 13.3995ZM3.2333 5.64304H12.7666V4.27654C12.7666 4.17387 12.7239 4.07981 12.6385 3.99437C12.553 3.90893 12.459 3.8662 12.3563 3.8662H3.64363C3.54097 3.8662 3.44691 3.90893 3.36147 3.99437C3.27602 4.07981 3.2333 4.17387 3.2333 4.27654V5.64304Z" />
</svg>
