<svg width="17" height="16" viewBox="0 0 17 16" xmlns="http://www.w3.org/2000/svg">
<path d="M12.523 14.4995H11.0552C10.9047 14.4995 10.7755 14.4455 10.6673 14.3374C10.5592 14.2293 10.5052 14.1 10.5052 13.9495C10.5052 13.7991 10.5592 13.6698 10.6673 13.5617C10.7755 13.4536 10.9047 13.3995 11.0552 13.3995H12.523C12.6257 13.3995 12.7197 13.3568 12.8052 13.2714C12.8906 13.1859 12.9333 13.0919 12.9333 12.9892V6.7432H3.40001V8.89954C3.40001 9.04998 3.34596 9.17926 3.23785 9.28737C3.12973 9.39548 3.00046 9.44954 2.85001 9.44954C2.69957 9.44954 2.57029 9.39548 2.46218 9.28737C2.35407 9.17926 2.30001 9.04998 2.30001 8.89954V4.27654C2.30001 3.85043 2.44523 3.4922 2.73568 3.20187C3.02601 2.91143 3.38423 2.7662 3.81035 2.7662H4.45635V1.92137C4.45635 1.76237 4.51257 1.62665 4.62501 1.5142C4.73746 1.40187 4.87312 1.3457 5.03201 1.3457C5.19101 1.3457 5.32673 1.40187 5.43918 1.5142C5.55151 1.62665 5.60768 1.76237 5.60768 1.92137V2.7662H10.777V1.8957C10.777 1.74526 10.8311 1.61598 10.9392 1.50787C11.0473 1.39976 11.1766 1.3457 11.327 1.3457C11.4773 1.3457 11.6066 1.39976 11.7147 1.50787C11.8229 1.61598 11.877 1.74526 11.877 1.8957V2.7662H12.523C12.9491 2.7662 13.3073 2.91143 13.5977 3.20187C13.8881 3.4922 14.0333 3.85043 14.0333 4.27654V12.9892C14.0333 13.4153 13.8881 13.7735 13.5977 14.0639C13.3073 14.3543 12.9491 14.4995 12.523 14.4995ZM6.56151 13.2162H1.50001C1.34957 13.2162 1.22029 13.1621 1.11218 13.054C1.00407 12.9459 0.950012 12.8166 0.950012 12.6662C0.950012 12.5158 1.00407 12.3865 1.11218 12.2784C1.22029 12.1703 1.34957 12.1162 1.50001 12.1162H6.56151L5.11418 10.6392C5.00729 10.5324 4.95323 10.408 4.95201 10.2659C4.95068 10.1238 5.00473 9.99954 5.11418 9.8932C5.22096 9.78631 5.34746 9.73287 5.49368 9.73287C5.63979 9.73287 5.76623 9.78631 5.87301 9.8932L8.13201 12.1225C8.28424 12.2788 8.36035 12.461 8.36035 12.6692C8.36035 12.8774 8.28424 13.0576 8.13201 13.2099L5.87301 15.452C5.76623 15.5589 5.63968 15.6109 5.49335 15.6079C5.34701 15.6049 5.22062 15.5486 5.11418 15.4392C5.00729 15.3324 4.95385 15.2081 4.95385 15.0662C4.95385 14.9243 5.00729 14.8 5.11418 14.6932L6.56151 13.2162ZM3.40001 5.64304H12.9333V4.27654C12.9333 4.17387 12.8906 4.07981 12.8052 3.99437C12.7197 3.90893 12.6257 3.8662 12.523 3.8662H3.81035C3.70768 3.8662 3.61362 3.90893 3.52818 3.99437C3.44273 4.07981 3.40001 4.17387 3.40001 4.27654V5.64304Z" />
</defs>
</svg>
