<svg width="16" height="16" viewBox="0 0 16 16" xmlns="http://www.w3.org/2000/svg">
<path d="M3.64363 14.4995C3.21752 14.4995 2.8593 14.3543 2.56897 14.0639C2.27852 13.7735 2.1333 13.4153 2.1333 12.9892V4.27654C2.1333 3.85043 2.27852 3.4922 2.56897 3.20187C2.8593 2.91143 3.21752 2.7662 3.64363 2.7662H4.28963V1.92137C4.28963 1.76237 4.34586 1.62665 4.4583 1.5142C4.57075 1.40187 4.70641 1.3457 4.8653 1.3457C5.0243 1.3457 5.16002 1.40187 5.27247 1.5142C5.3848 1.62665 5.44097 1.76237 5.44097 1.92137V2.7662H10.6103V1.8957C10.6103 1.74526 10.6644 1.61598 10.7725 1.50787C10.8806 1.39976 11.0099 1.3457 11.1603 1.3457C11.3106 1.3457 11.4399 1.39976 11.548 1.50787C11.6562 1.61598 11.7103 1.74526 11.7103 1.8957V2.7662H12.3563C12.7824 2.7662 13.1406 2.91143 13.431 3.20187C13.7214 3.4922 13.8666 3.85043 13.8666 4.27654V12.9892C13.8666 13.4153 13.7214 13.7735 13.431 14.0639C13.1406 14.3543 12.7824 14.4995 12.3563 14.4995H3.64363ZM3.64363 13.3995H12.3563C12.459 13.3995 12.553 13.3568 12.6385 13.2714C12.7239 13.1859 12.7666 13.0919 12.7666 12.9892V6.7432H3.2333V12.9892C3.2333 13.0919 3.27602 13.1859 3.36147 13.2714C3.44691 13.3568 3.54097 13.3995 3.64363 13.3995ZM3.2333 5.64304H12.7666V4.27654C12.7666 4.17387 12.7239 4.07981 12.6385 3.99437C12.553 3.90893 12.459 3.8662 12.3563 3.8662H3.64363C3.54097 3.8662 3.44691 3.90893 3.36147 3.99437C3.27602 4.07981 3.2333 4.17387 3.2333 4.27654V5.64304ZM7.99997 9.53537C7.84019 9.53537 7.69808 9.4732 7.57363 9.34887C7.4493 9.22454 7.38713 9.08243 7.38713 8.92254C7.38713 8.76276 7.4493 8.6207 7.57363 8.49637C7.69808 8.37204 7.84019 8.30987 7.99997 8.30987C8.15975 8.30987 8.30186 8.37204 8.4263 8.49637C8.55063 8.6207 8.6128 8.76276 8.6128 8.92254C8.6128 9.08243 8.55063 9.22454 8.4263 9.34887C8.30186 9.4732 8.15975 9.53537 7.99997 9.53537ZM5.3333 9.53537C5.17352 9.53537 5.03141 9.4732 4.90697 9.34887C4.78263 9.22454 4.72047 9.08243 4.72047 8.92254C4.72047 8.76276 4.78263 8.6207 4.90697 8.49637C5.03141 8.37204 5.17352 8.30987 5.3333 8.30987C5.49308 8.30987 5.63519 8.37204 5.75963 8.49637C5.88397 8.6207 5.94613 8.76276 5.94613 8.92254C5.94613 9.08243 5.88397 9.22454 5.75963 9.34887C5.63519 9.4732 5.49308 9.53537 5.3333 9.53537ZM10.6666 9.53537C10.5069 9.53537 10.3647 9.4732 10.2403 9.34887C10.116 9.22454 10.0538 9.08243 10.0538 8.92254C10.0538 8.76276 10.116 8.6207 10.2403 8.49637C10.3647 8.37204 10.5069 8.30987 10.6666 8.30987C10.8264 8.30987 10.9685 8.37204 11.093 8.49637C11.2173 8.6207 11.2795 8.76276 11.2795 8.92254C11.2795 9.08243 11.2173 9.22454 11.093 9.34887C10.9685 9.4732 10.8264 9.53537 10.6666 9.53537ZM7.99997 12.0995C7.84019 12.0995 7.69808 12.0374 7.57363 11.913C7.4493 11.7887 7.38713 11.6466 7.38713 11.4867C7.38713 11.3269 7.4493 11.1848 7.57363 11.0604C7.69808 10.936 7.84019 10.8739 7.99997 10.8739C8.15975 10.8739 8.30186 10.936 8.4263 11.0604C8.55063 11.1848 8.6128 11.3269 8.6128 11.4867C8.6128 11.6466 8.55063 11.7887 8.4263 11.913C8.30186 12.0374 8.15975 12.0995 7.99997 12.0995ZM5.3333 12.0995C5.17352 12.0995 5.03141 12.0374 4.90697 11.913C4.78263 11.7887 4.72047 11.6466 4.72047 11.4867C4.72047 11.3269 4.78263 11.1848 4.90697 11.0604C5.03141 10.936 5.17352 10.8739 5.3333 10.8739C5.49308 10.8739 5.63519 10.936 5.75963 11.0604C5.88397 11.1848 5.94613 11.3269 5.94613 11.4867C5.94613 11.6466 5.88397 11.7887 5.75963 11.913C5.63519 12.0374 5.49308 12.0995 5.3333 12.0995ZM10.6666 12.0995C10.5069 12.0995 10.3647 12.0374 10.2403 11.913C10.116 11.7887 10.0538 11.6466 10.0538 11.4867C10.0538 11.3269 10.116 11.1848 10.2403 11.0604C10.3647 10.936 10.5069 10.8739 10.6666 10.8739C10.8264 10.8739 10.9685 10.936 11.093 11.0604C11.2173 11.1848 11.2795 11.3269 11.2795 11.4867C11.2795 11.6466 11.2173 11.7887 11.093 11.913C10.9685 12.0374 10.8264 12.0995 10.6666 12.0995Z" />
</svg>
