<svg width="14" height="12" viewBox="0 0 14 12" xmlns="http://www.w3.org/2000/svg">
    <path d="M7.79348 4.37627L11.7654 8.63451C11.8351 8.70883 11.8916 8.79346 11.9349 8.88841C11.9783 8.98312 12 9.08475 12 9.19329C12 9.41015 11.934 9.59876 11.8019 9.75911C11.6698 9.91971 11.4956 10 11.2794 10L2.72061 10C2.50437 10 2.33021 9.91736 2.19813 9.75208C2.06604 9.5868 2 9.39398 2 9.1736C2 9.08803 2.07841 8.9081 2.23521 8.63381L6.20685 4.37627C6.30857 4.26609 6.42547 4.17583 6.55755 4.1055C6.68985 4.03517 6.83538 4 6.99414 4C7.15269 4 7.30006 4.03517 7.43627 4.1055C7.57247 4.17583 7.69154 4.26609 7.79348 4.37627Z"/>
</svg>
