<svg width="14" height="12" viewBox="0 0 14 12" xmlns="http://www.w3.org/2000/svg">
    <path d="M6.20652 7.62373L2.23456 3.36549C2.16494 3.29117 2.10844 3.20654 2.06507 3.11159C2.02169 3.01688 2 2.91525 2 2.80671C2 2.58985 2.06604 2.40124 2.19813 2.24089C2.33021 2.08029 2.50437 2 2.72061 2H11.2794C11.4956 2 11.6698 2.08264 11.8019 2.24792C11.934 2.4132 12 2.60603 12 2.8264C12 2.91197 11.9216 3.0919 11.7648 3.36619L7.79316 7.62373C7.69144 7.73391 7.57453 7.82417 7.44245 7.8945C7.31015 7.96483 7.16462 8 7.00586 8C6.84731 8 6.69994 7.96483 6.56373 7.8945C6.42753 7.82417 6.30846 7.73391 6.20652 7.62373Z"/>
</svg>
