<svg width="20" height="20" viewBox="0 0 20 20" xmlns="http://www.w3.org/2000/svg">
<path d="M10.7435 9.97902L7.35098 6.58632C7.21737 6.45284 7.14792 6.29472 7.14265 6.11194C7.13723 5.9293 7.20667 5.7659 7.35098 5.62173C7.49515 5.47743 7.65591 5.40527 7.83327 5.40527C8.01063 5.40527 8.1714 5.47743 8.31556 5.62173L12.0143 9.32027C12.1147 9.42083 12.1866 9.52291 12.2299 9.62652C12.2731 9.73013 12.2947 9.84763 12.2947 9.97902C12.2947 10.1104 12.2731 10.2279 12.2299 10.3315C12.1866 10.4351 12.1147 10.5372 12.0143 10.6378L8.31556 14.3363C8.18209 14.4699 8.02397 14.5394 7.84119 14.5446C7.65855 14.5501 7.49515 14.4806 7.35098 14.3363C7.20667 14.1921 7.13452 14.0314 7.13452 13.854C7.13452 13.6767 7.20667 13.5159 7.35098 13.3717L10.7435 9.97902Z" />
</svg>
