<svg width="20" height="20" viewBox="0 0 20 20" xmlns="http://www.w3.org/2000/svg">
<path d="M10.0207 8.71425L6.58632 12.1484C6.45284 12.282 6.29472 12.3515 6.11194 12.3567C5.9293 12.3622 5.7659 12.2927 5.62173 12.1484C5.47743 12.0042 5.40527 11.8435 5.40527 11.6661C5.40527 11.4888 5.47743 11.328 5.62173 11.1838L9.36194 7.44341C9.55222 7.25327 9.7718 7.1582 10.0207 7.1582C10.2696 7.1582 10.4892 7.25327 10.6794 7.44341L14.4196 11.1838C14.5533 11.3173 14.6227 11.4754 14.628 11.6582C14.6334 11.8408 14.564 12.0042 14.4196 12.1484C14.2755 12.2927 14.1147 12.3649 13.9374 12.3649C13.76 12.3649 13.5992 12.2927 13.4551 12.1484L10.0207 8.71425Z" />
</svg>
