<svg width="20" height="20" viewBox="0 0 20 20" xmlns="http://www.w3.org/2000/svg">
<path d="M8.79808 9.97901L12.1906 13.3717C12.3242 13.5052 12.3936 13.6633 12.3989 13.8461C12.4043 14.0287 12.3349 14.1921 12.1906 14.3363C12.0464 14.4806 11.8856 14.5528 11.7083 14.5528C11.5309 14.5528 11.3702 14.4806 11.226 14.3363L7.52724 10.6378C7.42683 10.5372 7.35495 10.4351 7.31162 10.3315C7.26842 10.2279 7.24683 10.1104 7.24683 9.97901C7.24683 9.84762 7.26842 9.73012 7.31162 9.62651C7.35495 9.52289 7.42683 9.42081 7.52724 9.32026L11.226 5.62171C11.3595 5.4881 11.5176 5.41866 11.7004 5.41338C11.883 5.40796 12.0464 5.47741 12.1906 5.62171C12.3349 5.76588 12.407 5.92664 12.407 6.10401C12.407 6.28137 12.3349 6.44213 12.1906 6.5863L8.79808 9.97901Z" />
</svg>
