<svg width="20" height="20" viewBox="0 0 20 20" xmlns="http://www.w3.org/2000/svg">
<path d="M10.0207 12.2527C9.88928 12.2527 9.77178 12.2311 9.66817 12.1879C9.56456 12.1445 9.46248 12.0727 9.36192 11.9722L5.62171 8.23182C5.4881 8.09835 5.41866 7.94023 5.41338 7.75745C5.40796 7.57481 5.47741 7.41141 5.62171 7.26724C5.76588 7.12293 5.92664 7.05078 6.104 7.05078C6.28137 7.05078 6.44213 7.12293 6.5863 7.26724L10.0207 10.7014L13.455 7.26724C13.5885 7.13363 13.7466 7.06418 13.9294 7.05891C14.1121 7.05349 14.2755 7.12293 14.4196 7.26724C14.5639 7.41141 14.6361 7.57217 14.6361 7.74953C14.6361 7.92689 14.5639 8.08766 14.4196 8.23182L10.6794 11.9722C10.5789 12.0727 10.4768 12.1445 10.3732 12.1879C10.2696 12.2311 10.1521 12.2527 10.0207 12.2527Z" />
</svg>
