<svg width="16" height="16" viewBox="0 0 16 16" xmlns="http://www.w3.org/2000/svg">
<path d="M7.04089 9.39496L5.49355 7.84763C5.38666 7.74074 5.26016 7.68519 5.11405 7.68096C4.96783 7.67663 4.83705 7.73219 4.72172 7.84763C4.60628 7.96296 4.54855 8.09158 4.54855 8.23346C4.54855 8.37535 4.60628 8.50396 4.72172 8.6193L6.51405 10.4116C6.66416 10.5637 6.83928 10.6398 7.03939 10.6398C7.2395 10.6398 7.41566 10.5637 7.56789 10.4116L11.2857 6.6938C11.3926 6.58691 11.4482 6.46041 11.4524 6.3143C11.4567 6.16807 11.4012 6.0373 11.2857 5.92196C11.1704 5.80652 11.0418 5.7488 10.8999 5.7488C10.758 5.7488 10.6294 5.80652 10.5141 5.92196L7.04089 9.39496ZM8.00205 14.5335C7.09861 14.5335 6.24922 14.362 5.45389 14.0191C4.65866 13.6762 3.96689 13.2109 3.37855 12.6231C2.79022 12.0354 2.3245 11.3441 1.98139 10.5495C1.63816 9.75491 1.46655 8.90585 1.46655 8.0023C1.46655 7.09608 1.63833 6.24402 1.98189 5.44613C2.32544 4.64835 2.79166 3.95441 3.38055 3.3643C3.96944 2.77407 4.66066 2.3103 5.45422 1.97296C6.24766 1.63552 7.0955 1.4668 7.99772 1.4668C8.90383 1.4668 9.75577 1.63535 10.5536 1.97246C11.3512 2.30958 12.0452 2.77302 12.6356 3.3628C13.2259 3.95257 13.6897 4.64613 14.0271 5.44346C14.3645 6.2408 14.5332 7.09274 14.5332 7.9993C14.5332 8.90585 14.3647 9.75491 14.0276 10.5465C13.6904 11.3379 13.2271 12.0284 12.6374 12.6178C12.0477 13.2072 11.3543 13.6739 10.5572 14.0178C9.76011 14.3616 8.90839 14.5335 8.00205 14.5335ZM7.99989 13.4335C9.51666 13.4335 10.8014 12.9071 11.8542 11.8545C12.9069 10.8017 13.4332 9.51691 13.4332 8.00013C13.4332 6.48335 12.9069 5.19857 11.8542 4.1458C10.8014 3.09313 9.51666 2.5668 7.99989 2.5668C6.48311 2.5668 5.19833 3.09313 4.14555 4.1458C3.09289 5.19857 2.56655 6.48335 2.56655 8.00013C2.56655 9.51691 3.09289 10.8017 4.14555 11.8545C5.19833 12.9071 6.48311 13.4335 7.99989 13.4335Z" />
</svg>
