<svg width="24" height="24" viewBox="0 0 24 24" xmlns="http://www.w3.org/2000/svg">
<path d="M12.75 11.6963V7.75C12.75 7.53717 12.6782 7.359 12.5345 7.2155C12.391 7.07183 12.2128 7 12 7C11.7872 7 11.609 7.07183 11.4655 7.2155C11.3218 7.359 11.25 7.53717 11.25 7.75V11.927C11.25 12.0475 11.2718 12.1623 11.3155 12.2713C11.359 12.3801 11.4276 12.4813 11.5212 12.575L14.4462 15.5C14.5846 15.6385 14.7586 15.7093 14.9682 15.7125C15.1779 15.7157 15.3552 15.6448 15.5 15.5C15.6448 15.3552 15.7172 15.1795 15.7172 14.973C15.7172 14.7667 15.6448 14.5911 15.5 14.4463L12.75 11.6963ZM12 20.5C10.8205 20.5 9.71542 20.2769 8.68475 19.8307C7.65392 19.3846 6.75517 18.7782 5.9885 18.0115C5.22183 17.2448 4.61542 16.3461 4.16925 15.3153C3.72308 14.2846 3.5 13.1795 3.5 12C3.5 10.8205 3.72308 9.71542 4.16925 8.68475C4.61542 7.65392 5.22183 6.75517 5.9885 5.9885C6.75517 5.22183 7.65392 4.61542 8.68475 4.16925C9.71542 3.72308 10.8205 3.5 12 3.5C13.1795 3.5 14.2846 3.72308 15.3152 4.16925C16.3461 4.61542 17.2448 5.22183 18.0115 5.9885C18.7782 6.75517 19.3846 7.65392 19.8307 8.68475C20.2769 9.71542 20.5 10.8205 20.5 12C20.5 13.1795 20.2769 14.2846 19.8307 15.3153C19.3846 16.3461 18.7782 17.2448 18.0115 18.0115C17.2448 18.7782 16.3461 19.3846 15.3152 19.8307C14.2846 20.2769 13.1795 20.5 12 20.5ZM12 19C13.9437 19 15.5962 18.3193 16.9577 16.9578C18.3192 15.5963 19 13.9437 19 12C19 10.0563 18.3192 8.40375 16.9577 7.04225C15.5962 5.68075 13.9437 5 12 5C10.0563 5 8.40375 5.68075 7.04225 7.04225C5.68075 8.40375 5 10.0563 5 12C5 13.9437 5.68075 15.5963 7.04225 16.9578C8.40375 18.3193 10.0563 19 12 19Z" />
</svg>
