<svg width="20" height="20" viewBox="0 0 20 20" xmlns="http://www.w3.org/2000/svg">
<path d="M8.63292 18.167C8.45347 18.167 8.2893 18.1055 8.14042 17.9824C7.99153 17.8592 7.8993 17.7055 7.86375 17.5212L7.62333 15.611C7.44069 15.5447 7.22056 15.4432 6.96292 15.3066C6.70528 15.1699 6.49278 15.0235 6.32542 14.8674L4.54167 15.6157C4.36542 15.6937 4.18646 15.7022 4.00479 15.6414C3.82312 15.5804 3.69014 15.465 3.60583 15.2951L2.20667 12.7889C2.12236 12.619 2.09354 12.4486 2.12021 12.2776C2.14687 12.1066 2.2366 11.9688 2.38937 11.8641L3.88625 10.7182C3.87556 10.5964 3.86222 10.4691 3.84625 10.3362C3.83014 10.2031 3.82208 10.0757 3.82208 9.95387C3.82208 9.84984 3.83014 9.73741 3.84625 9.61658C3.86222 9.4956 3.87556 9.35644 3.88625 9.19908L2.41021 8.09491C2.25743 7.99019 2.17035 7.84623 2.14896 7.66303C2.12771 7.47984 2.15924 7.30324 2.24354 7.13324L3.62667 4.73741C3.71097 4.57824 3.84049 4.46901 4.01521 4.4097C4.18993 4.3504 4.36542 4.35283 4.54167 4.41699L6.22604 5.10762C6.43326 4.94206 6.6643 4.78984 6.91917 4.65095C7.17389 4.51206 7.41021 4.3972 7.62812 4.30637L7.86375 2.43783C7.88403 2.24769 7.97243 2.09248 8.12896 1.9722C8.28549 1.85206 8.45347 1.79199 8.63292 1.79199H11.3671C11.5465 1.79199 11.7145 1.85206 11.871 1.9722C12.0276 2.09248 12.116 2.24769 12.1362 2.43783L12.3558 4.34324C12.6058 4.45546 12.8395 4.57033 13.0569 4.68783C13.2742 4.80533 13.4919 4.9522 13.71 5.12845L15.4535 4.41699C15.6259 4.33894 15.801 4.33303 15.9788 4.39928C16.1564 4.46553 16.2933 4.57824 16.3894 4.73741L17.7725 7.14928C17.8568 7.31915 17.8856 7.49303 17.859 7.67095C17.8323 7.84887 17.7426 7.99019 17.5898 8.09491L16.0079 9.28887C16.04 9.41914 16.0588 9.54574 16.0642 9.66866C16.0694 9.79144 16.0721 9.90199 16.0721 10.0003C16.0721 10.088 16.0667 10.1932 16.056 10.316C16.0453 10.4389 16.0347 10.5815 16.024 10.7439L17.516 11.8641C17.6688 11.9688 17.7647 12.1101 17.8038 12.288C17.8426 12.466 17.8199 12.6398 17.7356 12.8097L16.3685 15.2791C16.2842 15.4491 16.1463 15.5645 15.9546 15.6253C15.7631 15.6862 15.5768 15.6776 15.3958 15.5997L13.6058 14.8514C13.4017 15.0137 13.1994 15.1555 12.9992 15.2768C12.7989 15.398 12.5914 15.4971 12.3767 15.5741L12.1362 17.5212C12.1007 17.7055 12.0085 17.8592 11.8596 17.9824C11.7107 18.1055 11.5465 18.167 11.3671 18.167H8.63292ZM9.14583 16.792H10.7933L11.1042 14.5147C11.5379 14.4036 11.9326 14.2471 12.2883 14.0451C12.6439 13.843 13.004 13.5674 13.3685 13.2182L15.4054 14.0837L16.2548 12.667L14.4727 11.2968C14.5422 11.0596 14.5916 10.8328 14.621 10.6166C14.6503 10.4002 14.665 10.1828 14.665 9.96428C14.665 9.73512 14.6538 9.52623 14.6315 9.33762C14.609 9.14915 14.563 8.92081 14.4935 8.65262L16.2869 7.29199L15.4792 5.87533L13.3733 6.7247C13.1213 6.43415 12.7767 6.16234 12.3396 5.90928C11.9025 5.65623 11.4853 5.48734 11.0881 5.40262L10.8542 3.16699H9.12979L8.91187 5.36574C8.43646 5.46935 8.00882 5.63123 7.62896 5.85137C7.24924 6.07137 6.88521 6.36248 6.53687 6.7247L4.52083 5.87533L3.67146 7.29199L5.41667 8.64137C5.34722 8.88387 5.29861 9.11463 5.27083 9.33366C5.24306 9.55269 5.22917 9.76234 5.22917 9.96262C5.22917 10.1405 5.24306 10.3406 5.27083 10.5628C5.29861 10.785 5.34187 11.0366 5.40062 11.3176L3.67146 12.667L4.52083 14.0837L6.54167 13.2295C6.92417 13.5874 7.30181 13.8695 7.67458 14.0757C8.0475 14.2819 8.45458 14.4405 8.89583 14.5516L9.14583 16.792ZM9.915 12.6253C10.6574 12.6253 11.2874 12.3664 11.8052 11.8487C12.3228 11.331 12.5817 10.701 12.5817 9.95866C12.5817 9.2163 12.3228 8.5863 11.8052 8.06866C11.2874 7.55088 10.6574 7.29199 9.915 7.29199C9.17792 7.29199 8.54917 7.55088 8.02875 8.06866C7.50847 8.5863 7.24833 9.2163 7.24833 9.95866C7.24833 10.701 7.50847 11.331 8.02875 11.8487C8.54917 12.3664 9.17792 12.6253 9.915 12.6253Z" />
</svg>
