<svg width="20" height="20" viewBox="0 0 20 20" xmlns="http://www.w3.org/2000/svg">
<path d="M3.72117 15.0837H6.83159V4.91699H3.72117C3.57159 4.91699 3.44867 4.96505 3.35242 5.06116C3.25631 5.15741 3.20825 5.28033 3.20825 5.42991V14.5707C3.20825 14.7203 3.25631 14.8432 3.35242 14.9395C3.44867 15.0356 3.57159 15.0837 3.72117 15.0837ZM8.20659 15.0837H11.7933V4.91699H8.20659V15.0837ZM13.1683 15.0837H16.2787C16.4283 15.0837 16.5512 15.0356 16.6474 14.9395C16.7435 14.8432 16.7916 14.7203 16.7916 14.5707V5.42991C16.7916 5.28033 16.7435 5.15741 16.6474 5.06116C16.5512 4.96505 16.4283 4.91699 16.2787 4.91699H13.1683V15.0837ZM3.72117 16.4587C3.18853 16.4587 2.74075 16.2771 2.37784 15.9141C2.01478 15.5512 1.83325 15.1034 1.83325 14.5707V5.42991C1.83325 4.89727 2.01478 4.44949 2.37784 4.08658C2.74075 3.72352 3.18853 3.54199 3.72117 3.54199H16.2787C16.8113 3.54199 17.2591 3.72352 17.622 4.08658C17.9851 4.44949 18.1666 4.89727 18.1666 5.42991V14.5707C18.1666 15.1034 17.9851 15.5512 17.622 15.9141C17.2591 16.2771 16.8113 16.4587 16.2787 16.4587H3.72117Z" />
</svg>
