<svg width="20" height="20" viewBox="0 0 20 20" xmlns="http://www.w3.org/2000/svg">
<path d="M10.0207 10.9644L5.75296 15.2528C5.6056 15.4003 5.44053 15.4732 5.25775 15.4715C5.07512 15.47 4.90477 15.3901 4.74671 15.2319C4.60241 15.0739 4.53373 14.9131 4.54067 14.7496C4.54762 14.5862 4.62324 14.4254 4.76755 14.2674L9.01421 9.99964L4.74671 5.69027C4.6131 5.54291 4.54366 5.38478 4.53838 5.21589C4.53296 5.04714 4.60241 4.88374 4.74671 4.72568C4.90477 4.56749 5.07248 4.48492 5.24984 4.47798C5.4272 4.47103 5.59491 4.54666 5.75296 4.70485L10.0207 8.99319L14.2467 4.70485C14.3941 4.55735 14.5591 4.48443 14.7419 4.4861C14.9246 4.48763 15.0949 4.56749 15.253 4.72568C15.3973 4.88374 15.4659 5.0445 15.459 5.20798C15.4521 5.37145 15.3764 5.53221 15.2321 5.69027L10.9855 9.99964L15.2321 14.2674C15.3657 14.4008 15.4387 14.5555 15.4509 14.7313C15.4632 14.907 15.3973 15.0739 15.253 15.2319C15.0949 15.3901 14.9272 15.4727 14.7498 15.4796C14.5725 15.4866 14.4048 15.411 14.2467 15.2528L10.0207 10.9644Z" />
</svg>
