<svg width="20" height="20" viewBox="0 0 20 20" xmlns="http://www.w3.org/2000/svg">
<path d="M4.55466 17.3337C4.01508 17.3337 3.5655 17.1539 3.20591 16.7945C2.84647 16.4349 2.66675 15.9853 2.66675 15.4457V4.55491C2.66675 4.01533 2.84647 3.56574 3.20591 3.20616C3.5655 2.84671 4.01508 2.66699 4.55466 2.66699H15.4455C15.9851 2.66699 16.4347 2.84671 16.7942 3.20616C17.1537 3.56574 17.3334 4.01533 17.3334 4.55491V15.4457C17.3334 15.9853 17.1537 16.4349 16.7942 16.7945C16.4347 17.1539 15.9851 17.3337 15.4455 17.3337H4.55466ZM13.4584 15.9587H15.9584V4.55491C15.9584 4.42658 15.905 4.30901 15.7982 4.2022C15.6914 4.0954 15.5738 4.04199 15.4455 4.04199H13.4584V15.9587ZM12.0834 15.9587V4.04199H4.55466C4.42633 4.04199 4.30876 4.0954 4.20196 4.2022C4.09515 4.30901 4.04175 4.42658 4.04175 4.55491V15.4457C4.04175 15.5741 4.09515 15.6916 4.20196 15.7985C4.30876 15.9053 4.42633 15.9587 4.55466 15.9587H12.0834Z" />
</svg>
