<svg width="16" height="16" viewBox="0 0 16 16" xmlns="http://www.w3.org/2000/svg">
<path d="M7.99989 9.60903L5.30239 12.3192C5.1845 12.4372 5.05311 12.4962 4.90822 12.4962C4.76333 12.4962 4.63194 12.4372 4.51405 12.3192C4.3875 12.1927 4.32422 12.0614 4.32422 11.925C4.32422 11.7887 4.3875 11.6573 4.51405 11.5309L7.47289 8.57186C7.55333 8.49153 7.635 8.43403 7.71789 8.39936C7.80077 8.3648 7.89477 8.34753 7.99989 8.34753C8.105 8.34753 8.199 8.3648 8.28189 8.39936C8.36477 8.43403 8.44644 8.49153 8.52689 8.57186L11.4857 11.5309C11.6037 11.6487 11.6627 11.7774 11.6627 11.9167C11.6627 12.056 11.6037 12.1846 11.4857 12.3025C11.3593 12.4291 11.2279 12.4924 11.0916 12.4924C10.9552 12.4924 10.8238 12.4291 10.6974 12.3025L7.99989 9.60903ZM7.99989 4.39236L5.30239 7.10253C5.1845 7.22053 5.05311 7.27953 4.90822 7.27953C4.76333 7.27953 4.63194 7.22053 4.51405 7.10253C4.3875 6.97608 4.32422 6.84469 4.32422 6.70836C4.32422 6.57203 4.3875 6.44064 4.51405 6.31419L7.47289 3.35519C7.55333 3.27486 7.635 3.21736 7.71789 3.18269C7.80077 3.14814 7.89477 3.13086 7.99989 3.13086C8.105 3.13086 8.199 3.14814 8.28189 3.18269C8.36477 3.21736 8.44644 3.27486 8.52689 3.35519L11.4857 6.31419C11.6037 6.43208 11.6627 6.56069 11.6627 6.70003C11.6627 6.83936 11.6037 6.96797 11.4857 7.08586C11.3593 7.21242 11.2279 7.27569 11.0916 7.27569C10.9552 7.27569 10.8238 7.21242 10.6974 7.08586L7.99989 4.39236Z" />
</svg>
