<svg width="21" height="20" viewBox="0 0 21 20"  xmlns="http://www.w3.org/2000/svg">
    <path d="M7.91666 16.0672C7.6068 16.0672 7.35145 15.9598 7.15062 15.7451C6.94978 15.5304 6.84937 15.282 6.84937 14.9999C6.84937 14.69 6.94978 14.4347 7.15062 14.2339C7.35145 14.033 7.6068 13.9326 7.91666 13.9326C8.22652 13.9326 8.48187 14.033 8.6827 14.2339C8.88353 14.4347 8.98395 14.69 8.98395 14.9999C8.98395 15.282 8.88353 15.5304 8.6827 15.7451C8.48187 15.9598 8.22652 16.0672 7.91666 16.0672ZM13.0833 16.0672C12.7735 16.0672 12.5181 15.9598 12.3173 15.7451C12.1164 15.5304 12.016 15.282 12.016 14.9999C12.016 14.69 12.1164 14.4347 12.3173 14.2339C12.5181 14.033 12.7735 13.9326 13.0833 13.9326C13.3932 13.9326 13.6485 14.033 13.8494 14.2339C14.0502 14.4347 14.1506 14.69 14.1506 14.9999C14.1506 15.282 14.0502 15.5304 13.8494 15.7451C13.6485 15.9598 13.3932 16.0672 13.0833 16.0672ZM7.91666 11.0672C7.6068 11.0672 7.35145 10.9668 7.15062 10.766C6.94978 10.5651 6.84937 10.3098 6.84937 9.99991C6.84937 9.69005 6.94978 9.4347 7.15062 9.23387C7.35145 9.03303 7.6068 8.93262 7.91666 8.93262C8.22652 8.93262 8.48187 9.03303 8.6827 9.23387C8.88353 9.4347 8.98395 9.69005 8.98395 9.99991C8.98395 10.3098 8.88353 10.5651 8.6827 10.766C8.48187 10.9668 8.22652 11.0672 7.91666 11.0672ZM13.0833 11.0672C12.7735 11.0672 12.5181 10.9668 12.3173 10.766C12.1164 10.5651 12.016 10.3098 12.016 9.99991C12.016 9.69005 12.1164 9.4347 12.3173 9.23387C12.5181 9.03303 12.7735 8.93262 13.0833 8.93262C13.3932 8.93262 13.6485 9.03303 13.8494 9.23387C14.0502 9.4347 14.1506 9.69005 14.1506 9.99991C14.1506 10.3098 14.0502 10.5651 13.8494 10.766C13.6485 10.9668 13.3932 11.0672 13.0833 11.0672ZM7.91666 6.0672C7.6068 6.0672 7.35145 5.96678 7.15062 5.76595C6.94978 5.56512 6.84937 5.30977 6.84937 4.99991C6.84937 4.69005 6.94978 4.4347 7.15062 4.23387C7.35145 4.03303 7.6068 3.93262 7.91666 3.93262C8.22652 3.93262 8.48187 4.03303 8.6827 4.23387C8.88353 4.4347 8.98395 4.69005 8.98395 4.99991C8.98395 5.30977 8.88353 5.56512 8.6827 5.76595C8.48187 5.96678 8.22652 6.0672 7.91666 6.0672ZM13.0833 6.0672C12.7735 6.0672 12.5181 5.96678 12.3173 5.76595C12.1164 5.56512 12.016 5.30977 12.016 4.99991C12.016 4.69005 12.1164 4.4347 12.3173 4.23387C12.5181 4.03303 12.7735 3.93262 13.0833 3.93262C13.3932 3.93262 13.6485 4.03303 13.8494 4.23387C14.0502 4.4347 14.1506 4.69005 14.1506 4.99991C14.1506 5.30977 14.0502 5.56512 13.8494 5.76595C13.6485 5.96678 13.3932 6.0672 13.0833 6.0672Z"/>
</svg>
