<svg width="16" height="16" viewBox="0 0 16 16" xmlns="http://www.w3.org/2000/svg">
<path d="M7.9996 11.5822L10.6971 8.87204C10.815 8.75404 10.9464 8.69504 11.0913 8.69504C11.2362 8.69504 11.3675 8.75404 11.4854 8.87204C11.612 8.99849 11.6753 9.12988 11.6753 9.26621C11.6753 9.40254 11.612 9.53399 11.4854 9.66054L8.5266 12.6194C8.44616 12.6997 8.36449 12.7572 8.2816 12.7919C8.19871 12.8265 8.10471 12.8439 7.9996 12.8439C7.89449 12.8439 7.80049 12.8265 7.7176 12.7919C7.63471 12.7572 7.55305 12.6997 7.4726 12.6194L4.51377 9.66054C4.39577 9.54254 4.33955 9.4111 4.3451 9.26621C4.35066 9.12132 4.41243 8.98993 4.53043 8.87204C4.65688 8.74549 4.78827 8.68221 4.9246 8.68221C5.06093 8.68221 5.19232 8.74549 5.31877 8.87204L7.9996 11.5822ZM7.9996 6.39121L10.6971 3.68104C10.815 3.56304 10.9464 3.50404 11.0913 3.50404C11.2362 3.50404 11.3675 3.56304 11.4854 3.68104C11.612 3.80749 11.6753 3.93888 11.6753 4.07521C11.6753 4.21154 11.612 4.34293 11.4854 4.46938L8.5266 7.42838C8.44616 7.50871 8.36449 7.56621 8.2816 7.60088C8.19871 7.63543 8.10471 7.65271 7.9996 7.65271C7.89449 7.65271 7.80049 7.63543 7.7176 7.60088C7.63471 7.56621 7.55305 7.50871 7.4726 7.42838L4.51377 4.46938C4.39577 4.35149 4.33955 4.2201 4.3451 4.07521C4.35066 3.93032 4.41243 3.79893 4.53043 3.68104C4.65688 3.55449 4.78827 3.49121 4.9246 3.49121C5.06093 3.49121 5.19232 3.55449 5.31877 3.68104L7.9996 6.39121Z" />
</svg>
