<svg width="17" height="16" viewBox="0 0 17 16" xmlns="http://www.w3.org/2000/svg">
<path d="M9.09221 14.8002C8.92208 14.8002 8.77955 14.7427 8.66461 14.6278C8.54981 14.513 8.49241 14.3705 8.49241 14.2002C8.49241 14.0299 8.54981 13.8874 8.66461 13.7726C8.77955 13.6577 8.92208 13.6002 9.09221 13.6002H13.8538C13.9154 13.6002 13.9718 13.5745 14.023 13.5232C14.0743 13.472 14.1 13.4156 14.1 13.354V2.6464C14.1 2.5848 14.0743 2.52839 14.023 2.47719C13.9718 2.42586 13.9154 2.4002 13.8538 2.4002H9.09221C8.92208 2.4002 8.77955 2.34273 8.66461 2.2278C8.54981 2.113 8.49241 1.97046 8.49241 1.8002C8.49241 1.62993 8.54981 1.4874 8.66461 1.3726C8.77955 1.25766 8.92208 1.2002 9.09221 1.2002H13.8538C14.2579 1.2002 14.6 1.3402 14.88 1.6202C15.16 1.9002 15.3 2.24226 15.3 2.6464V13.354C15.3 13.7581 15.16 14.1002 14.88 14.3802C14.6 14.6602 14.2579 14.8002 13.8538 14.8002H9.09221ZM8.52461 8.6002H2.30001C2.12975 8.6002 1.98721 8.54273 1.87241 8.4278C1.75748 8.313 1.70001 8.17046 1.70001 8.0002C1.70001 7.82993 1.75748 7.6874 1.87241 7.5726C1.98721 7.45766 2.12975 7.4002 2.30001 7.4002H8.52461L6.98621 5.8618C6.87541 5.751 6.81875 5.61586 6.81621 5.4564C6.81368 5.29693 6.87035 5.15513 6.98621 5.031C7.10208 4.90686 7.24261 4.84273 7.40781 4.8386C7.57288 4.8346 7.71748 4.8946 7.84161 5.0186L10.317 7.494C10.4615 7.63866 10.5338 7.8074 10.5338 8.0002C10.5338 8.193 10.4615 8.36173 10.317 8.5064L7.84161 10.9818C7.72268 11.1007 7.58141 11.1594 7.41781 11.1578C7.25421 11.1563 7.11035 11.0935 6.98621 10.9694C6.87035 10.8453 6.81448 10.7027 6.81861 10.5418C6.82261 10.3807 6.88261 10.2423 6.99861 10.1264L8.52461 8.6002Z" />
</svg>
