<svg width="20" height="20" viewBox="0 0 20 20" xmlns="http://www.w3.org/2000/svg">
<path d="M9.99626 14.0817C10.1996 14.0817 10.3713 14.0129 10.5113 13.8754C10.6513 13.7379 10.7213 13.5675 10.7213 13.3642C10.7213 13.161 10.6524 12.9894 10.5148 12.8494C10.3773 12.7094 10.207 12.6394 10.0038 12.6394C9.80042 12.6394 9.62876 12.7081 9.48876 12.8456C9.34876 12.9833 9.27876 13.1537 9.27876 13.3569C9.27876 13.5602 9.34758 13.7319 9.48521 13.8719C9.62271 14.0117 9.79306 14.0817 9.99626 14.0817ZM10.0006 11.0304C10.1883 11.0304 10.3497 10.9627 10.4848 10.8273C10.6199 10.6919 10.6875 10.5304 10.6875 10.3429V6.61207C10.6875 6.42457 10.6197 6.26312 10.4842 6.1277C10.3486 5.99228 10.187 5.92457 9.99938 5.92457C9.81174 5.92457 9.65035 5.99228 9.51521 6.1277C9.38008 6.26312 9.31251 6.42457 9.31251 6.61207V10.3429C9.31251 10.5304 9.38028 10.6919 9.51584 10.8273C9.65139 10.9627 9.81299 11.0304 10.0006 11.0304ZM7.72438 17.3333C7.4648 17.3333 7.2173 17.2825 6.98188 17.1808C6.7466 17.0792 6.54271 16.9414 6.37021 16.7677L3.2323 13.6298C3.05855 13.4573 2.92084 13.2534 2.81917 13.0181C2.71751 12.7827 2.66667 12.5352 2.66667 12.2756V7.72437C2.66667 7.46478 2.71751 7.21728 2.81917 6.98187C2.92084 6.74659 3.05855 6.5427 3.2323 6.3702L6.37021 3.23228C6.54271 3.05853 6.7466 2.92082 6.98188 2.81916C7.2173 2.71749 7.4648 2.66666 7.72438 2.66666H12.2756C12.5352 2.66666 12.7827 2.71749 13.0181 2.81916C13.2534 2.92082 13.4573 3.05853 13.6298 3.23228L16.7677 6.3702C16.9415 6.5427 17.0792 6.74659 17.1808 6.98187C17.2825 7.21728 17.3333 7.46478 17.3333 7.72437V12.2756C17.3333 12.5352 17.2825 12.7827 17.1808 13.0181C17.0792 13.2534 16.9415 13.4573 16.7677 13.6298L13.6298 16.7677C13.4573 16.9414 13.2534 17.0792 13.0181 17.1808C12.7827 17.2825 12.5352 17.3333 12.2756 17.3333H7.72438ZM7.50001 15.9583H12.5L15.9583 12.5V7.49999L12.5 4.04166H7.50001L4.04167 7.49999V12.5L7.50001 15.9583Z" />
</svg>
