<svg width="16" height="16" viewBox="0 0 16 16" xmlns="http://www.w3.org/2000/svg">
<path d="M3.64363 13.8671C3.21452 13.8671 2.85552 13.7227 2.56663 13.4338C2.27775 13.1449 2.1333 12.7859 2.1333 12.3568V3.64412C2.1333 3.21501 2.27775 2.85601 2.56663 2.56712C2.85552 2.27823 3.21452 2.13379 3.64363 2.13379H7.4628C7.61324 2.13379 7.74252 2.18784 7.85063 2.29596C7.95875 2.40407 8.0128 2.53334 8.0128 2.68379C8.0128 2.83423 7.95875 2.96351 7.85063 3.07162C7.74252 3.17973 7.61324 3.23379 7.4628 3.23379H3.64363C3.54097 3.23379 3.44691 3.27651 3.36147 3.36196C3.27602 3.4474 3.2333 3.54146 3.2333 3.64412V12.3568C3.2333 12.4595 3.27602 12.5535 3.36147 12.639C3.44691 12.7244 3.54097 12.7671 3.64363 12.7671H7.4628C7.61324 12.7671 7.74252 12.8212 7.85063 12.9293C7.95875 13.0374 8.0128 13.1667 8.0128 13.3171C8.0128 13.4676 7.95875 13.5968 7.85063 13.705C7.74252 13.8131 7.61324 13.8671 7.4628 13.8671H3.64363ZM11.6896 8.53379H6.57813C6.42769 8.53379 6.29841 8.47973 6.1903 8.37162C6.08219 8.26351 6.02813 8.13423 6.02813 7.98379C6.02813 7.83334 6.08219 7.70407 6.1903 7.59596C6.29841 7.48784 6.42769 7.43379 6.57813 7.43379H11.6896L10.4256 6.16962C10.3076 6.05173 10.2465 5.91546 10.2423 5.76079C10.238 5.60601 10.2991 5.46968 10.4256 5.35179C10.5521 5.23379 10.6862 5.17696 10.8281 5.18129C10.97 5.18551 11.1 5.24662 11.218 5.36462L13.327 7.47346C13.4791 7.62568 13.5551 7.80134 13.5551 8.00046C13.5551 8.19957 13.4791 8.37523 13.327 8.52746L11.2346 10.6196C11.1252 10.7291 10.9925 10.7881 10.8365 10.7966C10.6805 10.8052 10.5435 10.7449 10.4256 10.6158C10.2991 10.4979 10.2337 10.3658 10.2295 10.2196C10.2251 10.0735 10.2862 9.93723 10.4128 9.81079L11.6896 8.53379Z" />
</svg>
