<svg width="16" height="16" viewBox="0 0 16 16" xmlns="http://www.w3.org/2000/svg">
<path d="M0 8C0 3.58172 3.58172 0 8 0C12.4183 0 16 3.58172 16 8C16 12.4183 12.4183 16 8 16C3.58172 16 0 12.4183 0 8Z"/>
<path d="M7.04113 9.39496L5.4938 7.84763C5.38691 7.74074 5.26041 7.68519 5.1143 7.68096C4.96808 7.67663 4.8373 7.73219 4.72196 7.84763C4.60652 7.96296 4.5488 8.09158 4.5488 8.23346C4.5488 8.37535 4.60652 8.50396 4.72196 8.6193L6.5143 10.4116C6.66441 10.5637 6.83952 10.6398 7.03963 10.6398C7.23974 10.6398 7.41591 10.5637 7.56813 10.4116L11.286 6.6938C11.3929 6.58691 11.4484 6.46041 11.4526 6.3143C11.457 6.16807 11.4014 6.0373 11.286 5.92196C11.1706 5.80652 11.042 5.7488 10.9001 5.7488C10.7582 5.7488 10.6296 5.80652 10.5143 5.92196L7.04113 9.39496ZM8.0023 14.5335C7.09885 14.5335 6.24946 14.362 5.45413 14.0191C4.65891 13.6762 3.96713 13.2109 3.3788 12.6231C2.79046 12.0354 2.32474 11.3441 1.98163 10.5495C1.63841 9.75491 1.4668 8.90585 1.4668 8.0023C1.4668 7.09608 1.63857 6.24402 1.98213 5.44613C2.32569 4.64835 2.79191 3.95441 3.3808 3.3643C3.96969 2.77407 4.66091 2.3103 5.45446 1.97296C6.24791 1.63552 7.09574 1.4668 7.99796 1.4668C8.90408 1.4668 9.75602 1.63535 10.5538 1.97246C11.3515 2.30958 12.0455 2.77302 12.6358 3.3628C13.2261 3.95257 13.69 4.64613 14.0273 5.44346C14.3647 6.2408 14.5335 7.09274 14.5335 7.9993C14.5335 8.90585 14.3649 9.75491 14.0278 10.5465C13.6907 11.3379 13.2273 12.0284 12.6376 12.6178C12.048 13.2072 11.3546 13.6739 10.5575 14.0178C9.76035 14.3616 8.90863 14.5335 8.0023 14.5335ZM8.00013 13.4335C9.51691 13.4335 10.8017 12.9071 11.8545 11.8545C12.9071 10.8017 13.4335 9.51691 13.4335 8.00013C13.4335 6.48335 12.9071 5.19857 11.8545 4.1458C10.8017 3.09313 9.51691 2.5668 8.00013 2.5668C6.48335 2.5668 5.19858 3.09313 4.1458 4.1458C3.09313 5.19857 2.5668 6.48335 2.5668 8.00013C2.5668 9.51691 3.09313 10.8017 4.1458 11.8545C5.19858 12.9071 6.48335 13.4335 8.00013 13.4335Z" fill="#EEEEF0"/>
</svg>
