<svg width="16" height="16" viewBox="0 0 16 16" xmlns="http://www.w3.org/2000/svg">
<path d="M0 8C0 3.58172 3.58172 0 8 0C12.4183 0 16 3.58172 16 8C16 12.4183 12.4183 16 8 16C3.58172 16 0 12.4183 0 8Z" />
<path d="M7.99697 11.2648C8.15963 11.2648 8.29697 11.2098 8.40897 11.0998C8.52097 10.9898 8.57697 10.8535 8.57697 10.6908C8.57697 10.5283 8.52191 10.391 8.4118 10.279C8.3018 10.167 8.16552 10.111 8.00297 10.111C7.8403 10.111 7.70297 10.166 7.59097 10.276C7.47897 10.3861 7.42297 10.5224 7.42297 10.685C7.42297 10.8476 7.47802 10.985 7.58813 11.097C7.69813 11.2089 7.83441 11.2648 7.99697 11.2648ZM8.00047 8.82381C8.15058 8.82381 8.27969 8.76965 8.3878 8.66131C8.49591 8.55298 8.54997 8.42381 8.54997 8.27381V5.28915C8.54997 5.13915 8.49575 5.00998 8.3873 4.90165C8.27886 4.79331 8.14958 4.73915 7.99947 4.73915C7.84936 4.73915 7.72025 4.79331 7.61213 4.90165C7.50402 5.00998 7.44997 5.13915 7.44997 5.28915V8.27381C7.44997 8.42381 7.50419 8.55298 7.61263 8.66131C7.72108 8.76965 7.85036 8.82381 8.00047 8.82381ZM6.17947 13.8661C5.9718 13.8661 5.7738 13.8255 5.58547 13.7441C5.39725 13.6628 5.23413 13.5526 5.09613 13.4136L2.5858 10.9033C2.4468 10.7653 2.33663 10.6022 2.2553 10.414C2.17397 10.2256 2.1333 10.0276 2.1333 9.81998V6.17898C2.1333 5.97131 2.17397 5.77331 2.2553 5.58498C2.33663 5.39676 2.4468 5.23365 2.5858 5.09565L5.09613 2.58531C5.23413 2.44631 5.39725 2.33615 5.58547 2.25481C5.7738 2.17348 5.9718 2.13281 6.17947 2.13281H9.82047C10.0281 2.13281 10.2261 2.17348 10.4145 2.25481C10.6027 2.33615 10.7658 2.44631 10.9038 2.58531L13.4141 5.09565C13.5531 5.23365 13.6633 5.39676 13.7446 5.58498C13.826 5.77331 13.8666 5.97131 13.8666 6.17898V9.81998C13.8666 10.0276 13.826 10.2256 13.7446 10.414C13.6633 10.6022 13.5531 10.7653 13.4141 10.9033L10.9038 13.4136C10.7658 13.5526 10.6027 13.6628 10.4145 13.7441C10.2261 13.8255 10.0281 13.8661 9.82047 13.8661H6.17947ZM5.99997 12.7661H9.99997L12.7666 9.99948V5.99948L9.99997 3.23281H5.99997L3.2333 5.99948V9.99948L5.99997 12.7661Z" fill="#EEEEF0"/>
</svg>
