<svg width="20" height="20" viewBox="0 0 20 20" xmlns="http://www.w3.org/2000/svg">
<path d="M9.80768 16.3337C9.52782 16.3337 9.28157 16.2343 9.06893 16.0355C8.85629 15.8368 8.74997 15.5975 8.74997 15.3176V10.7118L4.2531 4.98428C4.0299 4.7097 3.99386 4.42151 4.14497 4.1197C4.29622 3.81789 4.54491 3.66699 4.89102 3.66699H15.1089C15.455 3.66699 15.7037 3.81789 15.855 4.1197C16.0061 4.42151 15.97 4.7097 15.7468 4.98428L11.25 10.7118V15.4426C11.25 15.7086 11.161 15.9236 10.9831 16.0876C10.8052 16.2516 10.5832 16.3337 10.3173 16.3337H9.80768ZM9.99997 10.042L13.9166 5.04199H6.08331L9.99997 10.042Z" />
</svg>
