<svg width="20" height="20" viewBox="0 0 20 20" xmlns="http://www.w3.org/2000/svg">
<path d="M4.1875 12.625C4 12.625 3.83854 12.5572 3.70312 12.4217C3.56771 12.2861 3.5 12.1245 3.5 11.9369C3.5 11.7492 3.56771 11.5878 3.70312 11.4527C3.83854 11.3176 4 11.25 4.1875 11.25H15.8125C16 11.25 16.1615 11.3178 16.2969 11.4533C16.4323 11.5889 16.5 11.7505 16.5 11.9381C16.5 12.1258 16.4323 12.2872 16.2969 12.4223C16.1615 12.5574 16 12.625 15.8125 12.625H4.1875ZM4.1875 8.75C4 8.75 3.83854 8.68222 3.70312 8.54667C3.56771 8.41111 3.5 8.24951 3.5 8.06187C3.5 7.87424 3.56771 7.71285 3.70312 7.57771C3.83854 7.44257 4 7.375 4.1875 7.375H15.8125C16 7.375 16.1615 7.44278 16.2969 7.57833C16.4323 7.71389 16.5 7.87549 16.5 8.06313C16.5 8.25076 16.4323 8.41215 16.2969 8.54729C16.1615 8.68243 16 8.75 15.8125 8.75H4.1875Z" />
</svg>
