<svg width="20" height="20" viewBox="0 0 20 20" fill="none" xmlns="http://www.w3.org/2000/svg">
<path d="M10.8211 11.4087L9.47378 9.86458C9.37572 9.75931 9.25475 9.70667 9.11086 9.70667C8.96683 9.70667 8.84461 9.77236 8.74419 9.90375L8.0119 10.8927C7.8944 11.0519 7.87857 11.2161 7.9644 11.3854C8.05023 11.5547 8.19211 11.6394 8.39003 11.6394H14.6738C14.8532 11.6394 14.987 11.5617 15.0752 11.4062C15.1633 11.2508 15.1609 11.0866 15.0679 10.9135L13.6144 8.665C13.514 8.53361 13.3861 8.46444 13.2306 8.4575C13.0752 8.45056 12.9473 8.51278 12.8469 8.64417L10.8211 11.4087ZM6.95107 14.7917C6.41843 14.7917 5.97065 14.6101 5.60773 14.2471C5.24468 13.8842 5.06315 13.4364 5.06315 12.9037V3.76292C5.06315 3.23028 5.24468 2.7825 5.60773 2.41958C5.97065 2.05653 6.41843 1.875 6.95107 1.875H16.0919C16.6245 1.875 17.0723 2.05653 17.4352 2.41958C17.7983 2.7825 17.9798 3.23028 17.9798 3.76292V12.9037C17.9798 13.4364 17.7983 13.8842 17.4352 14.2471C17.0723 14.6101 16.6245 14.7917 16.0919 14.7917H6.95107ZM6.95107 13.4167H16.0919C16.2202 13.4167 16.3378 13.3633 16.4446 13.2565C16.5514 13.1497 16.6048 13.0321 16.6048 12.9037V3.76292C16.6048 3.63458 16.5514 3.51701 16.4446 3.41021C16.3378 3.3034 16.2202 3.25 16.0919 3.25H6.95107C6.82273 3.25 6.70516 3.3034 6.59836 3.41021C6.49155 3.51701 6.43815 3.63458 6.43815 3.76292V12.9037C6.43815 13.0321 6.49155 13.1497 6.59836 13.2565C6.70516 13.3633 6.82273 13.4167 6.95107 13.4167ZM3.9094 17.8333C3.37676 17.8333 2.92898 17.6518 2.56607 17.2887C2.20301 16.9258 2.02148 16.4781 2.02148 15.9456V6.11708C2.02148 5.92903 2.08905 5.76743 2.22419 5.63229C2.35933 5.49715 2.52093 5.42958 2.70898 5.42958C2.89704 5.42958 3.05864 5.49715 3.19378 5.63229C3.32891 5.76743 3.39648 5.92903 3.39648 6.11708V15.9456C3.39648 16.0738 3.44989 16.1913 3.55669 16.2981C3.6635 16.4049 3.78107 16.4583 3.9094 16.4583H13.7377C13.9258 16.4583 14.0874 16.5259 14.2225 16.661C14.3577 16.7962 14.4252 16.9578 14.4252 17.1458C14.4252 17.3339 14.3577 17.4955 14.2225 17.6306C14.0874 17.7658 13.9258 17.8333 13.7377 17.8333H3.9094Z" />
</svg>
