<svg width="20" height="20" viewBox="0 0 20 20" xmlns="http://www.w3.org/2000/svg">
<path d="M10.0215 14.0833C10.2091 14.0833 10.3705 14.0156 10.5056 13.8802C10.6408 13.7448 10.7083 13.5833 10.7083 13.3958V9.85418C10.7083 9.66668 10.6405 9.50522 10.505 9.3698C10.3694 9.23438 10.2078 9.16668 10.0202 9.16668C9.83256 9.16668 9.67118 9.23438 9.53604 9.3698C9.4009 9.50522 9.33333 9.66668 9.33333 9.85418V13.3958C9.33333 13.5833 9.40111 13.7448 9.53666 13.8802C9.67222 14.0156 9.83381 14.0833 10.0215 14.0833ZM9.99624 7.64751C10.1996 7.64751 10.3712 7.57876 10.5112 7.44126C10.6512 7.30362 10.7212 7.1332 10.7212 6.93001C10.7212 6.72668 10.6524 6.55501 10.5148 6.41501C10.3773 6.27515 10.2069 6.20522 10.0037 6.20522C9.80041 6.20522 9.62874 6.27397 9.48874 6.41147C9.34874 6.54897 9.27874 6.71938 9.27874 6.92272C9.27874 7.12591 9.34756 7.29751 9.4852 7.43751C9.6227 7.57751 9.79305 7.64751 9.99624 7.64751ZM10.0027 18.1667C8.8734 18.1667 7.81166 17.9524 6.81749 17.5238C5.82347 17.0951 4.95874 16.5135 4.22333 15.7788C3.48791 15.044 2.90576 14.18 2.47687 13.1867C2.04784 12.1935 1.83333 11.1322 1.83333 10.0027C1.83333 8.86994 2.04805 7.80487 2.47749 6.80751C2.90694 5.81029 3.48972 4.94286 4.22583 4.20522C4.96194 3.46744 5.82597 2.88772 6.81791 2.46605C7.80972 2.04425 8.86951 1.83334 9.99729 1.83334C11.1299 1.83334 12.1949 2.04404 13.1921 2.46543C14.1892 2.88682 15.0567 3.46612 15.7946 4.20334C16.5325 4.94057 17.1123 5.80751 17.534 6.80418C17.9558 7.80084 18.1667 8.86577 18.1667 9.99897C18.1667 11.1322 17.956 12.1935 17.5346 13.1829C17.1132 14.1722 16.534 15.0353 15.7969 15.7721C15.0598 16.5089 14.193 17.0922 13.1967 17.5221C12.2003 17.9518 11.1356 18.1667 10.0027 18.1667ZM9.99999 16.7917C11.896 16.7917 13.5019 16.1338 14.8179 14.8179C16.1337 13.502 16.7917 11.896 16.7917 10C16.7917 8.10404 16.1337 6.49807 14.8179 5.18209C13.5019 3.86626 11.896 3.20834 9.99999 3.20834C8.10402 3.20834 6.49805 3.86626 5.18208 5.18209C3.86624 6.49807 3.20833 8.10404 3.20833 10C3.20833 11.896 3.86624 13.502 5.18208 14.8179C6.49805 16.1338 8.10402 16.7917 9.99999 16.7917Z" />
</svg>
