<svg width="16" height="16" viewBox="0 0 16 16" xmlns="http://www.w3.org/2000/svg">
<path d="M2.66663 11.9001C2.51552 11.9001 2.38886 11.8458 2.28663 11.7374C2.18441 11.629 2.1333 11.4993 2.1333 11.3484C2.1333 11.1975 2.18441 11.0712 2.28663 10.9694C2.38886 10.8676 2.51552 10.8167 2.66663 10.8167H5.34997C5.50108 10.8167 5.62775 10.8678 5.72997 10.9699C5.83219 11.072 5.8833 11.1985 5.8833 11.3494C5.8833 11.5003 5.83219 11.6298 5.72997 11.7379C5.62775 11.846 5.50108 11.9001 5.34997 11.9001H2.66663ZM2.66663 8.4834C2.51552 8.4834 2.38886 8.42918 2.28663 8.32073C2.18441 8.21229 2.1333 8.08262 2.1333 7.93173C2.1333 7.78084 2.18441 7.65451 2.28663 7.55273C2.38886 7.45095 2.51552 7.40006 2.66663 7.40006H9.34363C9.49475 7.40006 9.62141 7.45112 9.72363 7.55323C9.82586 7.65534 9.87697 7.78184 9.87697 7.93273C9.87697 8.08362 9.82586 8.21312 9.72363 8.32123C9.62141 8.42934 9.49475 8.4834 9.34363 8.4834H2.66663ZM2.66663 5.06673C2.51552 5.06673 2.38886 5.01251 2.28663 4.90406C2.18441 4.79562 2.1333 4.66595 2.1333 4.51507C2.1333 4.36418 2.18747 4.23784 2.2958 4.13606C2.40413 4.03429 2.5333 3.9834 2.6833 3.9834H13.3333C13.4844 3.9834 13.6111 4.03445 13.7133 4.13657C13.8155 4.23857 13.8666 4.36507 13.8666 4.51607C13.8666 4.66695 13.8125 4.79645 13.7041 4.90457C13.5958 5.01268 13.4666 5.06673 13.3166 5.06673H2.66663Z" />
</svg>
