<svg width="20" height="20" viewBox="0 0 20 20" xmlns="http://www.w3.org/2000/svg">
<path d="M9.99989 16.3558C11.5522 15.0758 12.8079 13.7206 13.7668 12.29C14.7257 10.8594 15.2051 9.60201 15.2051 8.51771C15.2051 7.04868 14.7086 5.79035 13.7155 4.74271C12.7225 3.69521 11.4839 3.17146 9.99989 3.17146C8.51586 3.17146 7.27732 3.69521 6.28426 4.74271C5.29121 5.79035 4.79468 7.04868 4.79468 8.51771C4.79468 9.60201 5.27412 10.856 6.23301 12.2796C7.1919 13.7032 8.44753 15.0619 9.99989 16.3558ZM9.99989 17.6923C9.81405 17.6923 9.63162 17.664 9.45259 17.6073C9.27371 17.5508 9.10141 17.4535 8.93572 17.3156C8.24558 16.7013 7.57169 16.0424 6.91405 15.339C6.25655 14.6355 5.66871 13.9117 5.15051 13.1675C4.63232 12.4233 4.21433 11.6573 3.89655 10.8694C3.57864 10.0815 3.41968 9.29757 3.41968 8.51771C3.41968 6.76868 4.03884 5.21389 5.27718 3.85333C6.51537 2.49278 8.08961 1.8125 9.99989 1.8125C11.9102 1.8125 13.4844 2.49278 14.7226 3.85333C15.9609 5.21389 16.5801 6.76868 16.5801 8.51771C16.5801 9.29757 16.4211 10.0788 16.1032 10.8615C15.7854 11.644 15.3701 12.4099 14.8572 13.1594C14.3444 13.909 13.7592 14.6328 13.1016 15.3308C12.4441 16.029 11.7702 16.6853 11.0801 17.2996C10.9183 17.4375 10.7455 17.5374 10.5618 17.5994C10.3779 17.6613 10.1906 17.6923 9.99989 17.6923ZM10.0028 9.98396C10.4293 9.98396 10.7945 9.83104 11.0984 9.52521C11.4025 9.21938 11.5545 8.85319 11.5545 8.42667C11.5545 8.00014 11.4015 7.63486 11.0955 7.33083C10.7897 7.02694 10.4235 6.875 9.99697 6.875C9.57044 6.875 9.20523 7.02792 8.90134 7.33375C8.59732 7.63958 8.4453 8.00576 8.4453 8.43229C8.4453 8.85882 8.59829 9.2241 8.90426 9.52813C9.21009 9.83201 9.57628 9.98396 10.0028 9.98396Z" />
</svg>
