<svg width="16" height="16" viewBox="0 0 16 16" xmlns="http://www.w3.org/2000/svg">
<path d="M9.55624 13.6409L5.9499 12.3819L3.18207 13.4543C3.05551 13.5027 2.93296 13.5174 2.8144 13.4983C2.69574 13.4791 2.58385 13.4359 2.47874 13.3686C2.37362 13.3011 2.29251 13.2152 2.2354 13.1108C2.1784 13.0062 2.1499 12.8876 2.1499 12.7551V3.90675C2.1499 3.77031 2.18707 3.64553 2.2614 3.53242C2.33574 3.41931 2.43362 3.34353 2.55507 3.30509L5.44357 2.32559C5.52057 2.29225 5.60268 2.26725 5.6899 2.25059C5.77701 2.23392 5.86368 2.22559 5.9499 2.22559C6.03612 2.22559 6.12001 2.23392 6.20157 2.25059C6.28324 2.26725 6.36257 2.29225 6.43957 2.32559L10.0499 3.58459L12.8177 2.51225C12.9443 2.46381 13.0668 2.44914 13.1854 2.46825C13.3041 2.48736 13.416 2.53059 13.5211 2.59792C13.6262 2.66536 13.7073 2.75131 13.7644 2.85575C13.8214 2.96031 13.8499 3.07886 13.8499 3.21142V12.0836C13.8499 12.2209 13.8118 12.345 13.7357 12.4558C13.6597 12.5664 13.5568 12.641 13.4269 12.6794L10.5436 13.6538C10.4631 13.6871 10.3812 13.71 10.2977 13.7224C10.2142 13.7348 10.1312 13.7409 10.0489 13.7409C9.96668 13.7409 9.88413 13.7326 9.80124 13.7159C9.71835 13.6993 9.63668 13.6743 9.55624 13.6409ZM9.48324 12.4691V4.53575L6.51657 3.47175V11.4384L9.48324 12.4691ZM10.5832 12.4691L12.7499 11.7666V3.69992L10.5832 4.53575V12.4691ZM3.2499 12.2666L5.41657 11.4384V3.47175L3.2499 4.19992V12.2666Z"/>
</svg>
