<svg width="16" height="16" viewBox="0 0 16 16" fill="none" xmlns="http://www.w3.org/2000/svg">
<path d="M3.23336 12.7671H3.96536L10.7642 5.96846L10.032 5.25296L3.23336 12.0518V12.7671ZM2.88853 13.8671C2.68042 13.8671 2.50253 13.7933 2.35486 13.6456C2.2072 13.498 2.13336 13.3201 2.13336 13.112V12.2185C2.13336 12.0155 2.17353 11.8194 2.25386 11.6303C2.3342 11.4412 2.44486 11.2761 2.58586 11.1351L11.4205 2.27479C11.4778 2.2139 11.542 2.17518 11.6134 2.15862C11.6848 2.14207 11.7542 2.13379 11.8215 2.13379C11.8889 2.13379 11.9506 2.13679 12.0069 2.14279C12.063 2.14879 12.1265 2.18296 12.1975 2.24529L13.7424 3.77746C13.8047 3.84834 13.841 3.91501 13.8514 3.97746C13.8616 4.04001 13.8667 4.10807 13.8667 4.18162C13.8667 4.24973 13.857 4.31673 13.8377 4.38262C13.8184 4.4484 13.781 4.5099 13.7257 4.56712L4.86536 13.4146C4.72436 13.5556 4.55931 13.6663 4.3702 13.7466C4.18108 13.827 3.98503 13.8671 3.78203 13.8671H2.88853ZM10.4084 5.60879L10.032 5.25296L10.7642 5.96846L10.4084 5.60879Z" />
</svg>
