<svg width="20" height="20" viewBox="0 0 20 20" xmlns="http://www.w3.org/2000/svg">
<path d="M4.89336 14.4243C5.67114 13.873 6.47829 13.4492 7.31482 13.1528C8.15134 12.8563 9.04662 12.708 10.0007 12.708C10.9547 12.708 11.85 12.8563 12.6865 13.1528C13.523 13.4492 14.3302 13.873 15.1079 14.4243C15.6582 13.7854 16.0765 13.1025 16.3627 12.3755C16.6491 11.6484 16.7923 10.8565 16.7923 9.99967C16.7923 8.13856 16.1257 6.54134 14.7923 5.20801C13.459 3.87467 11.8618 3.20801 10.0007 3.20801C8.13954 3.20801 6.54232 3.87467 5.20898 5.20801C3.87565 6.54134 3.20898 8.13856 3.20898 9.99967C3.20898 10.8565 3.35218 11.6484 3.63857 12.3755C3.92482 13.1025 4.34308 13.7854 4.89336 14.4243ZM10.0027 10.9163C9.16051 10.9163 8.44961 10.6272 7.87003 10.049C7.29044 9.47099 7.00065 8.76078 7.00065 7.91842C7.00065 7.0762 7.28975 6.3653 7.86794 5.78572C8.446 5.20613 9.15621 4.91634 9.99857 4.91634C10.8408 4.91634 11.5517 5.20544 12.1313 5.78363C12.7109 6.36169 13.0007 7.0719 13.0007 7.91426C13.0007 8.75648 12.7116 9.46738 12.1334 10.047C11.5553 10.6265 10.8451 10.9163 10.0027 10.9163ZM10.0007 18.1663C8.88523 18.1663 7.8294 17.9525 6.83315 17.5247C5.83704 17.0969 4.97037 16.5125 4.23315 15.7713C3.49593 15.0304 2.91176 14.162 2.48065 13.1663C2.04954 12.1706 1.83398 11.1116 1.83398 9.98926C1.83398 8.8669 2.04954 7.81134 2.48065 6.82259C2.91176 5.83384 3.49593 4.96898 4.23315 4.22801C4.97037 3.4869 5.83704 2.90245 6.83315 2.47467C7.8294 2.0469 8.88871 1.83301 10.0111 1.83301C11.1334 1.83301 12.189 2.04856 13.1777 2.47967C14.1665 2.91079 15.0297 3.49516 15.7675 4.2328C16.5052 4.97058 17.0895 5.83328 17.5207 6.82092C17.9518 7.80856 18.1673 8.86815 18.1673 9.99967C18.1673 11.1151 17.9534 12.1709 17.5257 13.1672C17.0979 14.1633 16.5134 15.03 15.7723 15.7672C15.0313 16.5044 14.167 17.0886 13.1794 17.5197C12.1918 17.9508 11.1322 18.1663 10.0007 18.1663ZM10.0007 16.7913C10.6994 16.7913 11.4136 16.6674 12.1434 16.4195C12.8729 16.1717 13.5086 15.8282 14.0502 15.389C13.5086 14.982 12.8889 14.6625 12.1913 14.4307C11.4936 14.1989 10.7634 14.083 10.0007 14.083C9.23787 14.083 8.50496 14.1963 7.8019 14.4228C7.09898 14.6493 6.48204 14.9714 5.95107 15.389C6.49273 15.8282 7.12836 16.1717 7.85794 16.4195C8.58766 16.6674 9.3019 16.7913 10.0007 16.7913ZM10.0007 9.54134C10.4408 9.54134 10.8217 9.38058 11.1434 9.05905C11.4649 8.73738 11.6257 8.35648 11.6257 7.91634C11.6257 7.4762 11.4649 7.0953 11.1434 6.77363C10.8217 6.45211 10.4408 6.29134 10.0007 6.29134C9.56051 6.29134 9.17961 6.45211 8.85794 6.77363C8.53641 7.0953 8.37565 7.4762 8.37565 7.91634C8.37565 8.35648 8.53641 8.73738 8.85794 9.05905C9.17961 9.38058 9.56051 9.54134 10.0007 9.54134Z" />
</svg>
