<svg width="16" height="16" viewBox="0 0 16 16" xmlns="http://www.w3.org/2000/svg">
<path d="M7.4668 8.5668V10.7168C7.4668 10.8668 7.52102 10.996 7.62946 11.1043C7.73791 11.2126 7.86719 11.2668 8.0173 11.2668C8.16741 11.2668 8.29652 11.2126 8.40463 11.1043C8.51274 10.996 8.5668 10.8668 8.5668 10.7168V8.5668H10.7168C10.8668 8.5668 10.996 8.51257 11.1043 8.40413C11.2126 8.29569 11.2668 8.16641 11.2668 8.0163C11.2668 7.86619 11.2126 7.73708 11.1043 7.62896C10.996 7.52085 10.8668 7.4668 10.7168 7.4668H8.5668V5.28346C8.5668 5.13346 8.51257 5.0043 8.40413 4.89596C8.29569 4.78763 8.16641 4.73346 8.0163 4.73346C7.86619 4.73346 7.73708 4.78763 7.62896 4.89596C7.52085 5.0043 7.4668 5.13346 7.4668 5.28346V7.4668H5.28346C5.13346 7.4668 5.0043 7.52102 4.89596 7.62946C4.78763 7.73791 4.73346 7.86719 4.73346 8.0173C4.73346 8.16741 4.78763 8.29652 4.89596 8.40463C5.0043 8.51274 5.13346 8.5668 5.28346 8.5668H7.4668ZM8.0023 14.5335C7.09885 14.5335 6.24946 14.362 5.45413 14.0191C4.65891 13.6762 3.96713 13.2109 3.3788 12.6231C2.79046 12.0354 2.32474 11.3441 1.98163 10.5495C1.63841 9.75491 1.4668 8.90585 1.4668 8.0023C1.4668 7.09608 1.63857 6.24402 1.98213 5.44613C2.32569 4.64835 2.79191 3.95441 3.3808 3.3643C3.96969 2.77407 4.66091 2.3103 5.45446 1.97296C6.24791 1.63552 7.09574 1.4668 7.99796 1.4668C8.90408 1.4668 9.75602 1.63535 10.5538 1.97246C11.3515 2.30958 12.0455 2.77302 12.6358 3.3628C13.2261 3.95257 13.69 4.64613 14.0273 5.44346C14.3647 6.2408 14.5335 7.09274 14.5335 7.9993C14.5335 8.90585 14.3649 9.75491 14.0278 10.5465C13.6907 11.3379 13.2273 12.0284 12.6376 12.6178C12.048 13.2072 11.3546 13.6739 10.5575 14.0178C9.76035 14.3616 8.90863 14.5335 8.0023 14.5335ZM8.00013 13.4335C9.51691 13.4335 10.8017 12.9071 11.8545 11.8545C12.9071 10.8017 13.4335 9.51691 13.4335 8.00013C13.4335 6.48335 12.9071 5.19857 11.8545 4.1458C10.8017 3.09313 9.51691 2.5668 8.00013 2.5668C6.48335 2.5668 5.19858 3.09313 4.1458 4.1458C3.09313 5.19857 2.5668 6.48335 2.5668 8.00013C2.5668 9.51691 3.09313 10.8017 4.1458 11.8545C5.19858 12.9071 6.48335 13.4335 8.00013 13.4335Z" />
</svg>
