<svg width="16" height="16" viewBox="0 0 16 16" xmlns="http://www.w3.org/2000/svg">
<path d="M7.45001 7.46647H4.01667C3.86667 7.46647 3.73751 7.52069 3.62917 7.62914C3.52084 7.73758 3.46667 7.86686 3.46667 8.01697C3.46667 8.16708 3.52084 8.29619 3.62917 8.4043C3.73751 8.51242 3.86667 8.56647 4.01667 8.56647H7.45001V11.9998C7.45001 12.1498 7.50423 12.279 7.61268 12.3873C7.72112 12.4956 7.8504 12.5498 8.00051 12.5498C8.15062 12.5498 8.27973 12.4956 8.38784 12.3873C8.49595 12.279 8.55001 12.1498 8.55001 11.9998V8.56647H11.9833C12.1333 8.56647 12.2625 8.51225 12.3708 8.4038C12.4792 8.29536 12.5333 8.16608 12.5333 8.01597C12.5333 7.86586 12.4792 7.73675 12.3708 7.62864C12.2625 7.52053 12.1333 7.46647 11.9833 7.46647H8.55001V4.03314C8.55001 3.88314 8.49579 3.75397 8.38734 3.64564C8.2789 3.5373 8.14962 3.48314 7.99951 3.48314C7.8494 3.48314 7.72029 3.5373 7.61217 3.64564C7.50406 3.75397 7.45001 3.88314 7.45001 4.03314V7.46647Z" />
</svg>
