<svg width="16" height="16" viewBox="0 0 16 16" xmlns="http://www.w3.org/2000/svg">
<path d="M6.00003 13.8839C5.28548 13.8839 4.68187 13.6375 4.1892 13.1447C3.69642 12.652 3.45003 12.0484 3.45003 11.3339V5.80302C3.06114 5.62524 2.7417 5.37813 2.4917 5.06169C2.2417 4.74524 2.1167 4.39297 2.1167 4.00485C2.1167 3.48052 2.29964 3.0348 2.66553 2.66769C3.03142 2.30069 3.47575 2.11719 3.99853 2.11719C4.52131 2.11719 4.96614 2.30069 5.33303 2.66769C5.69992 3.0348 5.88337 3.48052 5.88337 4.00485C5.88337 4.39297 5.75837 4.74524 5.50837 5.06169C5.25837 5.37813 4.93892 5.62524 4.55003 5.80302V11.3339C4.55003 11.7326 4.69225 12.074 4.9767 12.3579C5.26114 12.6419 5.60309 12.7839 6.00253 12.7839C6.40198 12.7839 6.74309 12.6419 7.02587 12.3579C7.30864 12.074 7.45003 11.7326 7.45003 11.3339V4.66719C7.45003 3.95263 7.69642 3.34902 8.1892 2.85635C8.68187 2.36358 9.28548 2.11719 10 2.11719C10.7146 2.11719 11.3182 2.36358 11.8109 2.85635C12.3036 3.34902 12.55 3.95263 12.55 4.66719V10.198C12.9389 10.3758 13.2584 10.6229 13.5084 10.9394C13.7584 11.2558 13.8834 11.6081 13.8834 11.9962C13.8834 12.5205 13.7004 12.9662 13.3345 13.3334C12.9686 13.7004 12.5243 13.8839 12.0015 13.8839C11.4788 13.8839 11.0339 13.7004 10.667 13.3334C10.3001 12.9662 10.1167 12.5205 10.1167 11.9962C10.1167 11.6084 10.2417 11.2534 10.4917 10.9312C10.7417 10.6091 11.0611 10.3647 11.45 10.198V4.66719C11.45 4.26841 11.3078 3.92708 11.0234 3.64319C10.7389 3.35919 10.397 3.21719 9.99753 3.21719C9.59809 3.21719 9.25698 3.35919 8.9742 3.64319C8.69142 3.92708 8.55003 4.26841 8.55003 4.66719V11.3339C8.55003 12.0484 8.30364 12.652 7.81087 13.1447C7.3182 13.6375 6.71459 13.8839 6.00003 13.8839ZM4.00003 4.78385C4.21303 4.78385 4.39681 4.70652 4.55137 4.55185C4.70603 4.3973 4.78337 4.21352 4.78337 4.00052C4.78337 3.78752 4.70603 3.60374 4.55137 3.44919C4.39681 3.29452 4.21303 3.21719 4.00003 3.21719C3.78703 3.21719 3.60325 3.29452 3.4487 3.44919C3.29403 3.60374 3.2167 3.78752 3.2167 4.00052C3.2167 4.21352 3.29403 4.3973 3.4487 4.55185C3.60325 4.70652 3.78703 4.78385 4.00003 4.78385ZM12 12.7839C12.213 12.7839 12.3968 12.7065 12.5514 12.5519C12.706 12.3973 12.7834 12.2135 12.7834 12.0005C12.7834 11.7875 12.706 11.6037 12.5514 11.4492C12.3968 11.2945 12.213 11.2172 12 11.2172C11.787 11.2172 11.6033 11.2945 11.4487 11.4492C11.294 11.6037 11.2167 11.7875 11.2167 12.0005C11.2167 12.2135 11.294 12.3973 11.4487 12.5519C11.6033 12.7065 11.787 12.7839 12 12.7839Z" />
</svg>
