<svg width="20" height="20" viewBox="0 0 20 20" xmlns="http://www.w3.org/2000/svg">
<path d="M7.88647 13.1509C6.41535 13.1509 5.16827 12.6394 4.14522 11.6165C3.1223 10.5934 2.61084 9.34635 2.61084 7.87523C2.61084 6.40412 3.1223 5.15704 4.14522 4.13398C5.16827 3.11107 6.41535 2.59961 7.88647 2.59961C9.35758 2.59961 10.6047 3.11107 11.6277 4.13398C12.6506 5.15704 13.1621 6.40412 13.1621 7.87523C13.1621 8.46815 13.0699 9.04933 12.8856 9.61878C12.7013 10.1882 12.4425 10.6791 12.1092 11.0915L16.9073 15.8896C17.0408 16.0232 17.1102 16.1813 17.1156 16.364C17.1209 16.5468 17.0515 16.7102 16.9073 16.8544C16.763 16.9986 16.6022 17.0707 16.4248 17.0707C16.2476 17.0707 16.0868 16.9986 15.9425 16.8544L11.1652 12.0771C10.7485 12.4179 10.2381 12.6821 9.63397 12.8696C9.0298 13.0571 8.4473 13.1509 7.88647 13.1509ZM7.88647 11.7759C8.99216 11.7759 9.91869 11.4022 10.666 10.6548C11.4134 9.9076 11.7871 8.98107 11.7871 7.87523C11.7871 6.7694 11.4134 5.84287 10.666 5.09565C9.91869 4.34829 8.99216 3.97461 7.88647 3.97461C6.78063 3.97461 5.8541 4.34829 5.10688 5.09565C4.35952 5.84287 3.98584 6.7694 3.98584 7.87523C3.98584 8.98107 4.35952 9.9076 5.10688 10.6548C5.8541 11.4022 6.78063 11.7759 7.88647 11.7759Z" />
</svg>
