<svg width="17" height="16" viewBox="0 0 17 16" fill="none" xmlns="http://www.w3.org/2000/svg">
    <path d="M8.81649 14.0167C8.66638 14.0167 8.53727 13.9626 8.42916 13.8542C8.32105 13.7459 8.26699 13.6167 8.26699 13.4667V10.7667C8.26699 10.6167 8.32121 10.4876 8.42966 10.3792C8.5381 10.2709 8.66738 10.2167 8.81749 10.2167C8.9676 10.2167 9.09671 10.2709 9.20483 10.3792C9.31294 10.4876 9.36699 10.6167 9.36699 10.7667V11.5667H14.1003C14.2503 11.5667 14.3795 11.621 14.4878 11.7294C14.5962 11.8378 14.6503 11.9671 14.6503 12.1172C14.6503 12.2673 14.5962 12.3965 14.4878 12.5046C14.3795 12.6127 14.2503 12.6667 14.1003 12.6667H9.36699V13.4667C9.36699 13.6167 9.31277 13.7459 9.20433 13.8542C9.09588 13.9626 8.9666 14.0167 8.81649 14.0167ZM3.21699 12.6667C3.06699 12.6667 2.93783 12.6125 2.82949 12.5041C2.72116 12.3956 2.66699 12.2663 2.66699 12.1162C2.66699 11.9661 2.72116 11.837 2.82949 11.7289C2.93783 11.6208 3.06699 11.5667 3.21699 11.5667H6.05033C6.20033 11.5667 6.32949 11.621 6.43783 11.7294C6.54616 11.8378 6.60033 11.9671 6.60033 12.1172C6.60033 12.2673 6.54616 12.3965 6.43783 12.5046C6.32949 12.6127 6.20033 12.6667 6.05033 12.6667H3.21699ZM6.04983 9.90007C5.89971 9.90007 5.7706 9.8459 5.66249 9.73757C5.55438 9.62923 5.50033 9.50007 5.50033 9.35007V8.55007H3.21699C3.06699 8.55007 2.93783 8.49584 2.82949 8.3874C2.72116 8.27895 2.66699 8.14968 2.66699 7.99957C2.66699 7.84945 2.72116 7.72034 2.82949 7.61223C2.93783 7.50412 3.06699 7.45007 3.21699 7.45007H5.50033V6.65007C5.50033 6.50007 5.55455 6.3709 5.66299 6.26257C5.77144 6.15423 5.90071 6.10007 6.05083 6.10007C6.20094 6.10007 6.33005 6.15423 6.43816 6.26257C6.54627 6.3709 6.60033 6.50007 6.60033 6.65007V9.35007C6.60033 9.50007 6.5461 9.62923 6.43766 9.73757C6.32921 9.8459 6.19994 9.90007 6.04983 9.90007ZM8.81699 8.55007C8.66699 8.55007 8.53783 8.49584 8.42949 8.3874C8.32116 8.27895 8.26699 8.14968 8.26699 7.99957C8.26699 7.84945 8.32116 7.72034 8.42949 7.61223C8.53783 7.50412 8.66699 7.45007 8.81699 7.45007H14.1003C14.2503 7.45007 14.3795 7.50429 14.4878 7.61273C14.5962 7.72118 14.6503 7.85045 14.6503 8.00057C14.6503 8.15068 14.5962 8.27979 14.4878 8.3879C14.3795 8.49601 14.2503 8.55007 14.1003 8.55007H8.81699ZM11.2665 5.7834C11.1164 5.7834 10.9873 5.72923 10.8792 5.6209C10.771 5.51257 10.717 5.3834 10.717 5.2334V2.5334C10.717 2.3834 10.7712 2.25423 10.8797 2.1459C10.9881 2.03757 11.1174 1.9834 11.2675 1.9834C11.4176 1.9834 11.5467 2.03757 11.6548 2.1459C11.7629 2.25423 11.817 2.3834 11.817 2.5334V3.3334H14.1003C14.2503 3.3334 14.3795 3.38762 14.4878 3.49607C14.5962 3.60451 14.6503 3.73379 14.6503 3.8839C14.6503 4.03401 14.5962 4.16312 14.4878 4.27123C14.3795 4.37934 14.2503 4.4334 14.1003 4.4334H11.817V5.2334C11.817 5.3834 11.7628 5.51257 11.6543 5.6209C11.5459 5.72923 11.4166 5.7834 11.2665 5.7834ZM3.21699 4.4334C3.06699 4.4334 2.93783 4.37918 2.82949 4.27073C2.72116 4.16229 2.66699 4.03301 2.66699 3.8829C2.66699 3.73279 2.72116 3.60368 2.82949 3.49556C2.93783 3.38745 3.06699 3.3334 3.21699 3.3334H8.50033C8.65033 3.3334 8.77949 3.38762 8.88783 3.49607C8.99616 3.60451 9.05033 3.73379 9.05033 3.8839C9.05033 4.03401 8.99616 4.16312 8.88783 4.27123C8.77949 4.37934 8.65033 4.4334 8.50033 4.4334H3.21699Z" fill="#373B43"/>
</svg>
