<svg width="16" height="16" viewBox="0 0 16 16" xmlns="http://www.w3.org/2000/svg">
    <path d="M7.45007 14.4335V13.7679C6.02784 13.6322 4.83107 13.0814 3.85973 12.1155C2.88829 11.1498 2.33473 9.95575 2.19907 8.53353H1.5334C1.3834 8.53353 1.25423 8.47931 1.1459 8.37086C1.03757 8.26242 0.983398 8.13314 0.983398 7.98303C0.983398 7.83292 1.03757 7.70381 1.1459 7.5957C1.25423 7.48758 1.3834 7.43353 1.5334 7.43353H2.19907C2.33473 6.01131 2.88829 4.81175 3.85973 3.83486C4.83107 2.85786 6.02784 2.30153 7.45007 2.16586V1.5002C7.45007 1.3502 7.50429 1.22103 7.61273 1.1127C7.72118 1.00436 7.85045 0.950195 8.00057 0.950195C8.15068 0.950195 8.27979 1.00436 8.3879 1.1127C8.49601 1.22103 8.55007 1.3502 8.55007 1.5002V2.16586C9.97229 2.30153 11.1691 2.85786 12.1404 3.83486C13.1118 4.81175 13.6654 6.01131 13.8011 7.43353H14.4667C14.6167 7.43353 14.7459 7.48775 14.8542 7.5962C14.9626 7.70464 15.0167 7.83392 15.0167 7.98403C15.0167 8.13414 14.9626 8.26325 14.8542 8.37136C14.7459 8.47947 14.6167 8.53353 14.4667 8.53353H13.8011C13.6654 9.95575 13.1118 11.1498 12.1404 12.1155C11.1691 13.0814 9.97229 13.6322 8.55007 13.7679V14.4335C8.55007 14.5835 8.49584 14.7127 8.3874 14.821C8.27895 14.9294 8.14968 14.9835 7.99957 14.9835C7.84945 14.9835 7.72034 14.9294 7.61223 14.821C7.50412 14.7127 7.45007 14.5835 7.45007 14.4335ZM8.01673 12.6835C9.33895 12.6835 10.4556 12.228 11.3667 11.3169C12.2778 10.4058 12.7334 9.28908 12.7334 7.96686C12.7334 6.64464 12.2778 5.52797 11.3667 4.61686C10.4556 3.70575 9.33895 3.2502 8.01673 3.2502C6.69451 3.2502 5.57784 3.70575 4.66673 4.61686C3.75562 5.52797 3.30007 6.64464 3.30007 7.96686C3.30007 9.28908 3.75562 10.4058 4.66673 11.3169C5.57784 12.228 6.69451 12.6835 8.01673 12.6835ZM8.01673 10.4335C7.34451 10.4335 6.76534 10.1905 6.27923 9.70436C5.79312 9.21825 5.55007 8.63908 5.55007 7.96686C5.55007 7.29464 5.79312 6.71547 6.27923 6.22936C6.76534 5.74325 7.34451 5.5002 8.01673 5.5002C8.68895 5.5002 9.26812 5.74325 9.75423 6.22936C10.2403 6.71547 10.4834 7.29464 10.4834 7.96686C10.4834 8.63908 10.2403 9.21825 9.75423 9.70436C9.26812 10.1905 8.68895 10.4335 8.01673 10.4335ZM8.01673 9.33353C8.3834 9.33353 8.70284 9.19742 8.97507 8.9252C9.24729 8.65297 9.3834 8.33353 9.3834 7.96686C9.3834 7.6002 9.24729 7.28075 8.97507 7.00853C8.70284 6.73631 8.3834 6.6002 8.01673 6.6002C7.65007 6.6002 7.33062 6.73631 7.0584 7.00853C6.78618 7.28075 6.65007 7.6002 6.65007 7.96686C6.65007 8.33353 6.78618 8.65297 7.0584 8.9252C7.33062 9.19742 7.65007 9.33353 8.01673 9.33353Z"  />
</svg>
