<svg width="16" height="16" viewBox="0 0 16 16" fill="none" xmlns="http://www.w3.org/2000/svg">
<path d="M3.64363 13.8671C3.21752 13.8671 2.8593 13.7219 2.56897 13.4315C2.27852 13.1411 2.1333 12.7829 2.1333 12.3568V3.64412C2.1333 3.21801 2.27852 2.85979 2.56897 2.56946C2.8593 2.27901 3.21752 2.13379 3.64363 2.13379H12.3563C12.7824 2.13379 13.1406 2.27901 13.431 2.56946C13.7214 2.85979 13.8666 3.21801 13.8666 3.64412V12.3568C13.8666 12.7829 13.7214 13.1411 13.431 13.4315C13.1406 13.7219 12.7824 13.8671 12.3563 13.8671H3.64363ZM3.64363 12.7671H7.44997V3.23379H3.64363C3.54097 3.23379 3.44691 3.27651 3.36147 3.36196C3.27602 3.4474 3.2333 3.54146 3.2333 3.64412V12.3568C3.2333 12.4595 3.27602 12.5535 3.36147 12.639C3.44691 12.7244 3.54097 12.7671 3.64363 12.7671ZM8.54997 12.7671H12.3563C12.459 12.7671 12.553 12.7244 12.6385 12.639C12.7239 12.5535 12.7666 12.4595 12.7666 12.3568V8.00046H8.54997V12.7671ZM8.54997 6.90046H12.7666V3.64412C12.7666 3.54146 12.7239 3.4474 12.6385 3.36196C12.553 3.27651 12.459 3.23379 12.3563 3.23379H8.54997V6.90046Z" />
</svg>
