<svg width="20" height="20" viewBox="0 0 20 20" xmlns="http://www.w3.org/2000/svg">
<path d="M7.95832 12.9423L15.2725 5.62813C15.4104 5.49146 15.5723 5.42042 15.7581 5.415C15.9439 5.40972 16.1105 5.47931 16.2579 5.62375C16.4054 5.76833 16.4792 5.92993 16.4792 6.10854C16.4792 6.28729 16.4054 6.45035 16.2579 6.59771L8.61707 14.2227C8.4293 14.4128 8.21034 14.5079 7.9602 14.5079C7.71006 14.5079 7.48985 14.4128 7.29957 14.2227L3.79957 10.7227C3.66291 10.5897 3.5927 10.4317 3.58895 10.2488C3.5852 10.0658 3.65555 9.90063 3.79999 9.75313C3.94457 9.60576 4.10617 9.53208 4.28478 9.53208C4.46353 9.53208 4.62659 9.60576 4.77395 9.75313L7.95832 12.9423Z" />
</svg>
