<svg width="20" height="20" viewBox="0 0 20 20" xmlns="http://www.w3.org/2000/svg">
<path d="M10.0027 18.1667C8.8684 18.1667 7.80652 17.9525 6.81708 17.5242C5.82777 17.0958 4.96416 16.5131 4.22624 15.7758C3.48833 15.0386 2.90506 14.1757 2.47645 13.1871C2.0477 12.1986 1.83333 11.1372 1.83333 10.0027C1.83333 8.86841 2.04756 7.80306 2.47604 6.80668C2.90451 5.81043 3.48749 4.94334 4.22499 4.20543C4.96249 3.46751 5.82569 2.88772 6.81458 2.46605C7.80347 2.04425 8.86527 1.83334 9.99999 1.83334C10.7062 1.83334 11.3905 1.92334 12.0529 2.10334C12.7153 2.28334 13.3488 2.55501 13.9535 2.91834C14.1352 3.00057 14.2474 3.13411 14.29 3.31897C14.3328 3.50383 14.3029 3.67314 14.2004 3.82689C14.0839 3.99466 13.9262 4.09459 13.7275 4.12668C13.5289 4.15862 13.3425 4.14043 13.1683 4.07209C12.68 3.79112 12.1722 3.57695 11.645 3.42959C11.1178 3.28209 10.5694 3.20834 9.99999 3.20834C8.11111 3.20834 6.50694 3.86807 5.18749 5.18751C3.86805 6.50695 3.20833 8.11112 3.20833 10C3.20833 11.8889 3.86805 13.4931 5.18749 14.8125C6.50694 16.132 8.11111 16.7917 9.99999 16.7917C11.8889 16.7917 13.493 16.132 14.8125 14.8125C16.1319 13.4931 16.7917 11.8889 16.7917 10C16.7917 9.87195 16.7863 9.75043 16.7756 9.63543C16.7649 9.52057 16.7435 9.40119 16.7115 9.2773C16.6976 9.07508 16.7446 8.89202 16.8525 8.72814C16.9604 8.56425 17.1094 8.45508 17.2994 8.40063C17.4823 8.34619 17.648 8.37397 17.7965 8.48397C17.9449 8.59397 18.033 8.7414 18.0608 8.92626C18.0961 9.09723 18.1226 9.273 18.1402 9.45355C18.1578 9.63425 18.1667 9.8164 18.1667 10C18.1667 11.1347 17.956 12.1965 17.5346 13.1854C17.1132 14.1743 16.5339 15.0375 15.7967 15.775C15.0594 16.5125 14.193 17.0955 13.1975 17.524C12.2021 17.9524 11.1371 18.1667 10.0027 18.1667ZM8.80124 11.7436L16.7196 3.84126C16.853 3.70779 17.0138 3.64105 17.2019 3.64105C17.3899 3.64105 17.5519 3.70897 17.6877 3.8448C17.8296 3.98675 17.9006 4.1464 17.9006 4.32376C17.9006 4.50112 17.8285 4.66189 17.6844 4.80605L9.45999 13.0144C9.26972 13.2045 9.05013 13.2996 8.80124 13.2996C8.55236 13.2996 8.33284 13.2045 8.1427 13.0144L5.90229 10.774C5.76868 10.6405 5.69923 10.4824 5.69395 10.2996C5.68854 10.117 5.75798 9.95355 5.90229 9.80938C6.04645 9.66508 6.20722 9.59293 6.38458 9.59293C6.56194 9.59293 6.72277 9.66508 6.86708 9.80938L8.80124 11.7436Z" />
</svg>
