<svg width="17" height="16" viewBox="0 0 17 16" fill="none" xmlns="http://www.w3.org/2000/svg">
<path d="M5.51085 13.867C5.0813 13.867 4.72219 13.7227 4.43352 13.434C4.14485 13.1453 4.00052 12.7862 4.00052 12.3567V3.93367H3.66719C3.51719 3.93367 3.38802 3.87944 3.27969 3.771C3.17135 3.66256 3.11719 3.53328 3.11719 3.38317C3.11719 3.23306 3.17135 3.10394 3.27969 2.99583C3.38802 2.88772 3.51719 2.83367 3.66719 2.83367H6.46719C6.46719 2.66278 6.53102 2.51233 6.65869 2.38233C6.78635 2.25244 6.93791 2.1875 7.11335 2.1875H9.92102C10.0965 2.1875 10.248 2.25133 10.3757 2.379C10.5034 2.50678 10.5672 2.65833 10.5672 2.83367H13.3672C13.5172 2.83367 13.6464 2.88789 13.7547 2.99633C13.863 3.10478 13.9172 3.23406 13.9172 3.38417C13.9172 3.53428 13.863 3.66339 13.7547 3.7715C13.6464 3.87961 13.5172 3.93367 13.3672 3.93367H13.0339V12.3567C13.0339 12.7862 12.8895 13.1453 12.6009 13.434C12.3122 13.7227 11.9531 13.867 11.5235 13.867H5.51085ZM11.9339 3.93367H5.10052V12.3567C5.10052 12.4763 5.13897 12.5747 5.21585 12.6517C5.29285 12.7286 5.39119 12.767 5.51085 12.767H11.5235C11.6432 12.767 11.7415 12.7286 11.8185 12.6517C11.8954 12.5747 11.9339 12.4763 11.9339 12.3567V3.93367ZM7.23935 11.417C7.38958 11.417 7.51874 11.3628 7.62685 11.2545C7.73497 11.1462 7.78902 11.017 7.78902 10.867V5.83367C7.78902 5.68367 7.7348 5.5545 7.62635 5.44617C7.51791 5.33783 7.38863 5.28367 7.23852 5.28367C7.08841 5.28367 6.9593 5.33783 6.85119 5.44617C6.74308 5.5545 6.68902 5.68367 6.68902 5.83367V10.867C6.68902 11.017 6.74324 11.1462 6.85169 11.2545C6.96002 11.3628 7.08924 11.417 7.23935 11.417ZM9.79585 11.417C9.94597 11.417 10.0751 11.3628 10.1832 11.2545C10.2913 11.1462 10.3454 11.017 10.3454 10.867V5.83367C10.3454 5.68367 10.2911 5.5545 10.1827 5.44617C10.0744 5.33783 9.94513 5.28367 9.79502 5.28367C9.6448 5.28367 9.51563 5.33783 9.40752 5.44617C9.29941 5.5545 9.24535 5.68367 9.24535 5.83367V10.867C9.24535 11.017 9.29958 11.1462 9.40802 11.2545C9.51647 11.3628 9.64574 11.417 9.79585 11.417Z" />
</svg>
