<svg width="20" height="20" viewBox="0 0 20 20" xmlns="http://www.w3.org/2000/svg">
<path d="M4.78206 16.5549C4.10622 16.5549 3.53296 16.3187 3.06227 15.8462C2.59171 15.3738 2.35643 14.8002 2.35643 14.1253H1.8131C1.55296 14.1253 1.3306 14.033 1.14602 13.8485C0.961432 13.6639 0.869141 13.4415 0.869141 13.1814V5.42991C0.869141 4.89727 1.05067 4.44949 1.41372 4.08658C1.77678 3.72352 2.22456 3.54199 2.75706 3.54199H12.2281C12.765 3.54199 13.2139 3.72241 13.5748 4.08324C13.9356 4.44408 14.116 4.89296 14.116 5.42991V6.84658H15.491C15.7838 6.84658 16.0612 6.9081 16.3231 7.03116C16.5852 7.15435 16.8057 7.33477 16.9846 7.57241L18.935 10.1895C18.9937 10.2734 19.0412 10.3621 19.0775 10.4557C19.1139 10.5494 19.1321 10.6507 19.1321 10.7599V13.1814C19.1321 13.4415 19.0398 13.6639 18.8552 13.8485C18.6706 14.033 18.4482 14.1253 18.1881 14.1253H17.5358C17.5358 14.8002 17.2993 15.3738 16.8262 15.8462C16.353 16.3187 15.7785 16.5549 15.1027 16.5549C14.4382 16.5549 13.8748 16.3187 13.4123 15.8462C12.9498 15.3738 12.7185 14.8002 12.7185 14.1253H7.21539C7.21539 14.8038 6.97879 15.3783 6.5056 15.8489C6.03254 16.3196 5.45803 16.5549 4.78206 16.5549ZM4.78518 15.1799C5.07727 15.1799 5.32615 15.0773 5.53185 14.872C5.73754 14.6669 5.84039 14.4182 5.84039 14.1262C5.84039 13.8339 5.73782 13.585 5.53268 13.3793C5.3274 13.1736 5.07872 13.0707 4.78664 13.0707C4.49442 13.0707 4.24546 13.1734 4.03977 13.3787C3.83421 13.5838 3.73143 13.8325 3.73143 14.1247C3.73143 14.4168 3.834 14.6657 4.03914 14.8714C4.24428 15.0771 4.49296 15.1799 4.78518 15.1799ZM2.24414 12.7503H2.86602C3.06796 12.4384 3.33393 12.1846 3.66393 11.9891C3.99393 11.7935 4.3681 11.6957 4.78643 11.6957C5.18352 11.6957 5.5522 11.7978 5.89247 12.002C6.23275 12.206 6.50386 12.4555 6.70581 12.7503H12.741V5.42991C12.741 5.28033 12.693 5.15741 12.5968 5.06116C12.5006 4.96505 12.3777 4.91699 12.2281 4.91699H2.75706C2.62886 4.91699 2.51129 4.9704 2.40435 5.0772C2.29754 5.18401 2.24414 5.30158 2.24414 5.42991V12.7503ZM15.1056 15.1799C15.3978 15.1799 15.6467 15.0773 15.8523 14.872C16.058 14.6669 16.1608 14.4182 16.1608 14.1262C16.1608 13.8339 16.0582 13.585 15.8531 13.3793C15.648 13.1736 15.3993 13.0707 15.1071 13.0707C14.815 13.0707 14.5661 13.1734 14.3604 13.3787C14.1547 13.5838 14.0518 13.8325 14.0518 14.1247C14.0518 14.4168 14.1544 14.6657 14.3596 14.8714C14.5648 15.0771 14.8135 15.1799 15.1056 15.1799ZM14.116 11.042H17.8756L15.8756 8.42991C15.8221 8.36574 15.7607 8.31498 15.6912 8.27762C15.6218 8.24026 15.5443 8.22158 15.4589 8.22158H14.116V11.042Z" />
</svg>
