<svg width="20" height="20" viewBox="0 0 20 20" xmlns="http://www.w3.org/2000/svg">
<path d="M9.99487 16.6667C9.60415 16.6667 9.27105 16.5293 8.99559 16.2545C8.72013 15.9798 8.5824 15.6495 8.5824 15.2637C8.5824 14.8779 8.72153 14.549 8.99979 14.277C9.27805 14.005 9.61254 13.869 10.0033 13.869C10.394 13.869 10.7271 14.0064 11.0025 14.2812C11.278 14.5559 11.4157 14.8862 11.4157 15.272C11.4157 15.6578 11.2766 15.9867 10.9983 16.2587C10.7201 16.5307 10.3856 16.6667 9.99487 16.6667ZM9.99487 11.3988C9.60415 11.3988 9.27105 11.2615 8.99559 10.9867C8.72013 10.7119 8.5824 10.3817 8.5824 9.99586C8.5824 9.61007 8.72153 9.28117 8.99979 9.00918C9.27805 8.73718 9.61254 8.60119 10.0033 8.60119C10.394 8.60119 10.7271 8.73856 11.0025 9.01332C11.278 9.28808 11.4157 9.61836 11.4157 10.0042C11.4157 10.39 11.2766 10.7189 10.9983 10.9908C10.7201 11.2628 10.3856 11.3988 9.99487 11.3988ZM9.99487 6.13099C9.60415 6.13099 9.27105 5.99361 8.99559 5.71886C8.72013 5.4441 8.5824 5.11382 8.5824 4.72802C8.5824 4.34222 8.72153 4.01333 8.99979 3.74133C9.27805 3.46934 9.61254 3.33334 10.0033 3.33334C10.394 3.33334 10.7271 3.47072 11.0025 3.74548C11.278 4.02023 11.4157 4.35051 11.4157 4.73631C11.4157 5.12211 11.2766 5.45101 10.9983 5.723C10.7201 5.99499 10.3856 6.13099 9.99487 6.13099Z" />
</svg>
