<svg width="20" height="20" viewBox="0 0 20 20"  xmlns="http://www.w3.org/2000/svg">
<path d="M2.834 16.7083C2.64872 16.7083 2.48532 16.6601 2.34379 16.5637C2.20212 16.4673 2.08969 16.3547 2.0065 16.226C1.91816 16.0988 1.87094 15.9529 1.86483 15.7885C1.85886 15.6239 1.90518 15.4549 2.00379 15.2816L9.18858 2.94744C9.28719 2.77411 9.40386 2.65376 9.53858 2.5864C9.67316 2.51918 9.82698 2.48557 10 2.48557C10.1731 2.48557 10.3269 2.51918 10.4615 2.5864C10.5962 2.65376 10.7129 2.77411 10.8115 2.94744L17.9963 15.2816C18.0949 15.4549 18.1412 15.6239 18.1352 15.7885C18.1291 15.9529 18.0819 16.0988 17.9936 16.226C17.9104 16.3547 17.798 16.4673 17.6563 16.5637C17.5148 16.6601 17.3514 16.7083 17.1661 16.7083H2.834ZM3.58337 15.3333H16.4167L10 4.29161L3.58337 15.3333ZM10.0209 14.4087C10.2356 14.4087 10.4199 14.3317 10.5738 14.1779C10.7277 14.024 10.8046 13.8397 10.8046 13.6249C10.8046 13.4102 10.7277 13.2259 10.5738 13.072C10.4199 12.9181 10.2356 12.8412 10.0209 12.8412C9.80615 12.8412 9.62184 12.9181 9.46796 13.072C9.31407 13.2259 9.23712 13.4102 9.23712 13.6249C9.23712 13.8397 9.31407 14.024 9.46796 14.1779C9.62184 14.3317 9.80615 14.4087 10.0209 14.4087ZM10.0215 12.0704C10.2091 12.0704 10.3705 12.0026 10.5057 11.8672C10.6408 11.7318 10.7084 11.5704 10.7084 11.3829V8.50786C10.7084 8.32036 10.6406 8.1589 10.505 8.02348C10.3695 7.88807 10.2079 7.82036 10.0202 7.82036C9.83261 7.82036 9.67122 7.88807 9.53608 8.02348C9.40094 8.1589 9.33337 8.32036 9.33337 8.50786V11.3829C9.33337 11.5704 9.40115 11.7318 9.53671 11.8672C9.67226 12.0026 9.83386 12.0704 10.0215 12.0704Z" />
</svg>
