<svg width="12" height="12" viewBox="0 0 12 12" fill="none" xmlns="http://www.w3.org/2000/svg">
<g clip-path="url(#clip0_4496_38523)">
<circle cx="6" cy="6" r="6" fill="#6F7688"/>
<path d="M6.43918 5.82151V3.50104C6.43918 3.37589 6.39694 3.27112 6.31247 3.18674C6.22809 3.10226 6.12332 3.06002 5.99817 3.06002C5.87302 3.06002 5.76825 3.10226 5.68387 3.18674C5.59939 3.27112 5.55715 3.37589 5.55715 3.50104V5.9572C5.55715 6.02805 5.56999 6.09553 5.59567 6.15962C5.62125 6.22362 5.66158 6.28316 5.71665 6.33823L7.43661 8.05819C7.51795 8.13963 7.62027 8.18128 7.74356 8.18315C7.86685 8.18501 7.97107 8.14336 8.05624 8.05819C8.1414 7.97303 8.18399 7.86973 8.18399 7.74831C8.18399 7.62698 8.1414 7.52373 8.05624 7.43857L6.43918 5.82151ZM5.99817 10.9983C5.3046 10.9983 4.65479 10.8671 4.04874 10.6048C3.44259 10.3424 2.9141 9.98582 2.46329 9.535C2.01247 9.08419 1.65589 8.55571 1.39353 7.94955C1.13118 7.3435 1 6.69369 1 6.00012C1 5.30655 1.13118 4.65674 1.39353 4.05069C1.65589 3.44454 2.01247 2.91606 2.46329 2.46524C2.9141 2.01442 3.44259 1.65784 4.04874 1.39549C4.65479 1.13313 5.3046 1.00195 5.99817 1.00195C6.69174 1.00195 7.34155 1.13313 7.9476 1.39549C8.55375 1.65784 9.08224 2.01442 9.53305 2.46524C9.98387 2.91606 10.3405 3.44454 10.6028 4.05069C10.8652 4.65674 10.9963 5.30655 10.9963 6.00012C10.9963 6.69369 10.8652 7.3435 10.6028 7.94955C10.3405 8.55571 9.98387 9.08419 9.53305 9.535C9.08224 9.98582 8.55375 10.3424 7.9476 10.6048C7.34155 10.8671 6.69174 10.9983 5.99817 10.9983ZM5.99817 10.1163C7.14108 10.1163 8.11283 9.71597 8.91342 8.91538C9.71401 8.11479 10.1143 7.14304 10.1143 6.00012C10.1143 4.85721 9.71401 3.88546 8.91342 3.08487C8.11283 2.28428 7.14108 1.88398 5.99817 1.88398C4.85525 1.88398 3.8835 2.28428 3.08291 3.08487C2.28232 3.88546 1.88203 4.85721 1.88203 6.00012C1.88203 7.14304 2.28232 8.11479 3.08291 8.91538C3.8835 9.71597 4.85525 10.1163 5.99817 10.1163Z" fill="#EEEEF0"/>
</g>
<defs>
<clipPath id="clip0_4496_38523">
<rect width="12" height="12" fill="white"/>
</clipPath>
</defs>
</svg>
